<?xml version="1.0" encoding="UTF-8" standalone="no"?>
<!-- Created with Inkscape (http://www.inkscape.org/) -->
<svg width="42.333332mm" height="16.933332mm" viewBox="0 0 42.333331 16.933332" version="1.1" id="svg5" xml:space="preserve" xmlns="http://www.w3.org/2000/svg" xmlns:svg="http://www.w3.org/2000/svg"><defs id="defs2"/><g id="layer1" transform="translate(-18.226499,-20.967553)"><g id="g1369" transform="matrix(0.28103282,-0.00959845,0.00873944,0.25588187,12.009891,-1.5418593)"><g id="g1361" transform="matrix(1.011632,0.00265115,0.00219786,0.94103819,-0.42016186,5.1782435)"><path id="path1359" style="fill:#ffffff;stroke:none;stroke-width:2.86194;stroke-linecap:round;stroke-dasharray:none" d="m 151.60352,93.690682 c -39.53894,0.120432 -79.078361,-0.0274 -118.617192,0.04444 -2.698687,0.137485 -5.080461,2.191339 -5.333984,4.648157 -0.269268,1.556765 0.279119,3.318271 -0.751374,4.700671 -1.269957,1.22222 -3.283452,1.09324 -4.947845,1.21484 -1.125481,-0.0371 -2.524432,0.033 -3.109375,1.07361 0,5.84856 0,11.69712 0,17.54568 2.421086,-0.0501 5.040747,-0.60735 7.304688,0.3555 1.732968,0.715 1.825459,3.0927 0.382812,4.10958 -1.353422,1.09212 -3.24819,1.09821 -4.945312,1.21581 -1.776201,0.22492 -2.808437,1.9189 -2.784809,3.44016 0.09313,4.98531 0.01883,9.97893 0.04262,14.9676 2.619657,0.0638 5.466022,-0.41133 7.859375,0.81766 0.831298,0.32976 1.366837,1.10509 1.25224,1.93853 -0.04284,1.74702 -0.135951,3.50633 -0.02372,5.25499 0.123102,1.30029 0.392568,2.77072 1.682716,3.54952 1.487143,1.03623 3.443164,1.02594 5.22275,0.95096 39.140768,-0.11586 78.28194,0.0282 117.42266,-0.0389 2.89793,-0.12416 5.40839,-2.50386 5.40684,-5.14881 0.21096,-1.44999 -0.33604,-3.17646 0.87142,-4.35686 1.44108,-1.13199 3.46228,-0.9613 5.21605,-1.06977 1.13171,0.14198 2.62637,-0.38977 2.67561,-1.5759 0,-5.67839 0,-11.35678 0,-17.03518 -2.53656,0.0422 -5.30249,0.68369 -7.63827,-0.53386 -1.53821,-0.96075 -1.32972,-3.27394 0.23348,-4.12965 1.36998,-0.89105 3.12638,-0.98309 4.74643,-0.92732 1.52323,-0.0846 2.67325,-1.3759 2.68482,-2.7263 -0.031,-3.32071 -0.0201,-6.64847 -0.0281,-9.97261 4.9e-4,-1.91697 10e-4,-3.83395 0.002,-5.75092 -2.66446,-0.12449 -5.57741,0.38297 -7.98154,-0.93994 -0.97888,-0.36383 -1.27758,-1.4257 -1.08087,-2.29189 -0.1125,-2.4196 0.40691,-4.97129 -0.62336,-7.274698 -0.98399,-1.638702 -3.22981,-2.157606 -5.1404,-2.055048 z"/></g><g id="g1367" transform="matrix(-1.011632,-0.00265115,0.00200023,0.85641903,186.85086,19.169758)" style="stroke:#808000;stroke-width:2.41681;stroke-dasharray:none"><path style="fill:none;stroke:#808000;stroke-width:2.41681;stroke-linecap:round;stroke-dasharray:none" d="M 57.207287,90.921619 H 33.837499 c -2.30162,0.03611 -2.328652,0.03738 -2.328652,1.588832 v 6.970502 c 0,0 -0.914609,5.226897 -9.053256,5.226897 v 12.8873 c 11.460135,0 11.83204,14.3471 0,13.76271 v 12.86507 c 7.661769,0.17139 8.96701,4.15678 8.703319,9.08355 0.198608,2.85306 1.888082,2.456 3.443645,2.56111 l 82.316735,-0.17912" id="path1363"/><path style="fill:none;stroke:#808000;stroke-width:2.41681;stroke-linecap:round;stroke-dasharray:none" d="m 127.87926,155.86759 h 23.36979 c 2.30162,-0.0361 2.32865,-0.0374 2.32865,-1.58883 v -6.97051 c 0,0 0.91461,-5.22689 9.05326,-5.22689 v -12.8873 c -11.46014,0 -11.83204,-14.3471 0,-13.76271 v -12.86507 c -7.66177,-0.17139 -8.96701,-4.156782 -8.70332,-9.083552 -0.19861,-2.85306 -1.88808,-2.456 -3.44364,-2.56111 l -82.316738,0.17912" id="path1365"/></g></g><path style="font-weight:bold;font-size:4.77336px;line-height:0.8;font-family:Sans;-inkscape-font-specification:'Sans Bold';letter-spacing:0px;fill:#808000;stroke-width:2" d="m 27.060043,30.980666 q -0.247059,0.128191 -0.515094,0.193452 -0.268036,0.06526 -0.559378,0.06526 -0.869367,0 -1.377469,-0.484795 Q 24.1,30.267459 24.1,29.435384 q 0,-0.834405 0.508102,-1.3192 0.508102,-0.487125 1.377469,-0.487125 0.291342,0 0.559378,0.06526 0.268035,0.06526 0.515094,0.193452 v 0.720199 q -0.24939,-0.170144 -0.491787,-0.249389 -0.242397,-0.07925 -0.510432,-0.07925 -0.480133,0 -0.755161,0.307658 -0.275027,0.307658 -0.275027,0.84839 0,0.538402 0.275027,0.84606 0.275028,0.307658 0.755161,0.307658 0.268035,0 0.510432,-0.07925 0.242397,-0.07925 0.491787,-0.24939 z m 2.855159,-0.442841 h -1.403107 l -0.22142,0.633962 h -0.901998 l 1.288901,-3.479798 h 1.06981 l 1.288901,3.479798 H 30.134292 Z M 28.735846,29.89221 h 0.953274 l -0.475471,-1.384461 z m 4.036845,-0.657269 q 0.28202,0 0.403219,-0.104884 0.123529,-0.104883 0.123529,-0.34495 0,-0.237735 -0.123529,-0.340288 -0.121199,-0.102553 -0.403219,-0.102553 h -0.37758 v 0.892675 z m -0.37758,0.619977 v 1.316869 h -0.897335 v -3.479798 h 1.370476 q 0.687569,0 1.00688,0.230744 0.321643,0.230743 0.321643,0.729522 0,0.34495 -0.167814,0.56637 -0.165482,0.221421 -0.501109,0.326304 0.184129,0.04195 0.328635,0.191121 0.146836,0.146837 0.296004,0.447503 l 0.487125,0.988234 h -0.955604 l -0.424195,-0.864705 q -0.128191,-0.261043 -0.261044,-0.356604 -0.130521,-0.09556 -0.349611,-0.09556 z m 2.148945,-2.162929 h 3.207101 v 0.678246 h -1.153718 v 2.801552 h -0.897335 v -2.801552 h -1.156048 z m 3.670919,0 h 2.421641 v 0.678246 h -1.524305 v 0.647947 h 1.433406 v 0.678246 h -1.433406 v 0.797113 h 1.575581 v 0.678246 h -2.472917 z m 3.260709,0 h 0.897335 v 2.801552 h 1.575582 v 0.678246 h -2.472917 z m 3.041618,0 h 2.421641 v 0.678246 h -1.524305 v 0.647947 h 1.433406 v 0.678246 h -1.433406 v 0.797113 h 1.575581 v 0.678246 h -2.472917 z m 4.535624,1.542952 q 0.28202,0 0.403218,-0.104884 0.12353,-0.104883 0.12353,-0.34495 0,-0.237735 -0.12353,-0.340288 -0.121198,-0.102553 -0.403218,-0.102553 h -0.37758 v 0.892675 z m -0.37758,0.619977 v 1.316869 H 47.77801 v -3.479798 h 1.370476 q 0.687569,0 1.006881,0.230744 0.321642,0.230743 0.321642,0.729522 0,0.34495 -0.167813,0.56637 -0.165483,0.221421 -0.50111,0.326304 0.184129,0.04195 0.328635,0.191121 0.146837,0.146837 0.296004,0.447503 l 0.487125,0.988234 h -0.955604 l -0.424195,-0.864705 q -0.128191,-0.261043 -0.261043,-0.356604 -0.130522,-0.09556 -0.349612,-0.09556 z m 4.889895,0.682907 h -1.403106 l -0.221421,0.633962 h -0.901997 l 1.2889,-3.479798 h 1.069811 l 1.2889,3.479798 H 53.784331 Z M 52.385886,29.89221 h 0.953273 l -0.475471,-1.384461 z" id="text1" aria-label="CARTELERA"/><path d="m 48.123099,32.191226 v 1.620564 h 0.340584 q 0.431313,0 0.630917,-0.195417 0.201,-0.195416 0.201,-0.616959 0,-0.41875 -0.201,-0.612771 -0.199604,-0.195417 -0.630917,-0.195417 z M 47.84114,31.959517 h 0.579272 q 0.605792,0 0.889147,0.252647 0.283354,0.25125 0.283354,0.78725 0,0.538793 -0.28475,0.791439 -0.284751,0.252646 -0.887751,0.252646 H 47.84114 Z m 2.847504,0.277772 -0.382459,1.037105 h 0.766313 z m -0.159126,-0.277772 h 0.319647 l 0.79423,2.083982 h -0.293126 l -0.189833,-0.534605 h -0.939397 l -0.189834,0.534605 h -0.297313 z m 1.076189,0 h 0.28475 l 0.438293,1.761544 0.436896,-1.761544 h 0.316855 l 0.438292,1.761544 0.436896,-1.761544 h 0.286146 l -0.523438,2.083982 h -0.354542 l -0.439688,-1.809002 -0.443876,1.809002 h -0.354542 z" id="text2" style="font-size:2.85867px;line-height:0.8;font-family:Sans;-inkscape-font-specification:Sans;letter-spacing:0px;fill:#808000;stroke-width:2" aria-label="DAW"/></g></svg>