<svg width="128" height="128" version="1.1" viewBox="0 0 33.9 33.9" xmlns="http://www.w3.org/2000/svg"><g transform="matrix(.247 0 0 .248 -4.94 -16.9)" fill-rule="evenodd" stroke-width="1.16"><g stroke-width="3.23"><rect x="21.6" y="69.8" width="72.8" height="59.5" fill="#faa" stroke="#f00"/><rect x="82.7" y="144" width="72.8" height="59.5" fill="#80e5ff" stroke="#00f"/><rect x="21.6" y="144" width="46.5" height="59.5" fill="#fea" stroke="#808000"/><rect x="109" y="69.8" width="46.3" height="59.5" fill="#87deaa" stroke="#008000"/><text x="91.882713" y="124.88248" fill="#ff0000" font-family="Arial" font-size="16.9px" letter-spacing="0px" text-align="end" text-anchor="end" style="line-height:1" xml:space="preserve"><tspan x="91.882713" y="124.88248" fill="#ff0000" font-size="16.9px" stroke-width="3.23">1</tspan></text><text x="151.84392" y="124.88248" fill="#008000" font-family="Arial" font-size="16.9px" letter-spacing="0px" text-align="end" text-anchor="end" style="line-height:1" xml:space="preserve"><tspan x="151.84392" y="124.88248" fill="#008000" font-size="16.9px" stroke-width="3.23">2</tspan></text><path d="m55.7 196 1.49-0.198q0.256 1.27 0.868 1.83 0.62 0.554 1.5 0.554 1.05 0 1.77-0.728 0.728-0.728 0.728-1.8 0-1.03-0.67-1.69-0.67-0.67-1.7-0.67-0.422 0-1.05 0.165l0.165-1.31q0.149 0.0165 0.24 0.0165 0.951 0 1.71-0.496 0.761-0.496 0.761-1.53 0-0.819-0.554-1.36-0.554-0.537-1.43-0.537-0.868 0-1.45 0.546t-0.744 1.64l-1.49-0.265q0.273-1.5 1.24-2.32 0.967-0.827 2.41-0.827 0.992 0 1.83 0.43 0.835 0.422 1.27 1.16 0.446 0.736 0.446 1.56 0 0.785-0.422 1.43t-1.25 1.03q1.07 0.248 1.67 1.03 0.595 0.777 0.595 1.95 0 1.59-1.16 2.7-1.16 1.1-2.93 1.1-1.6 0-2.65-0.951t-1.2-2.46z" fill="#808000" aria-label="3"/><path d="m148 199v-2.9h-5.26v-1.36l5.53-7.85h1.22v7.85h1.64v1.36h-1.64v2.9zm0-4.27v-5.47l-3.8 5.47z" fill="#00f" aria-label="4"/></g></g></svg>
