<?xml version="1.0" encoding="UTF-8" standalone="no"?>
<svg
   width="320"
   height="200"
   version="1.1"
   id="svg103"
   sodipodi:docname="logo.svg"
   inkscape:version="1.2.1 (9c6d41e410, 2022-07-14)"
   xmlns:inkscape="http://www.inkscape.org/namespaces/inkscape"
   xmlns:sodipodi="http://sodipodi.sourceforge.net/DTD/sodipodi-0.dtd"
   xmlns="http://www.w3.org/2000/svg"
   xmlns:svg="http://www.w3.org/2000/svg">
  <defs
     id="defs107" />
  <sodipodi:namedview
     id="namedview105"
     pagecolor="#505050"
     bordercolor="#ffffff"
     borderopacity="1"
     inkscape:showpageshadow="0"
     inkscape:pageopacity="0"
     inkscape:pagecheckerboard="1"
     inkscape:deskcolor="#505050"
     showgrid="false"
     inkscape:zoom="1.3578953"
     inkscape:cx="66.647258"
     inkscape:cy="57.810053"
     inkscape:window-width="1920"
     inkscape:window-height="1037"
     inkscape:window-x="0"
     inkscape:window-y="0"
     inkscape:window-maximized="1"
     inkscape:current-layer="svg103" />
  <path
     d="m 23.982796,91.394468 c 3.81668,-2.827171 7.067926,-5.654341 9.188304,-9.471021 l 2.82717,-6.078416 C 39.532233,68.777105 38.260006,61.70918 35.150119,54.641254 a 33.926043,33.926043 0 0 0 -7.067926,-9.895096 l -7.63336,-7.067926 -4.099396,-4.099396 C 11.543247,27.641778 10.836454,21.70472 14.935851,15.202229 A 28.271703,28.271703 0 0 1 47.165593,1.4904528 c 4.099396,1.6963022 5.937057,4.947548 4.806189,9.0469452 -0.141358,0.989509 0,2.544453 -1.979019,1.979019 -0.98951,1.554944 -2.544453,0.98951 -3.958039,0.98951 L 45.327932,8.9824541 h -0.424076 c 0,1.4135849 0,2.8271699 -0.282717,4.2407559 -1.272226,0.565434 -2.403094,0.282717 -3.675321,-0.282718 C 40.380384,12.516417 40.097667,11.526907 39.81495,10.820115 39.390874,9.2651711 39.108157,7.7102275 38.118648,6.1552838 32.464307,9.5478881 28.506269,13.788644 26.809967,20.291135 c -0.706793,2.82717 0.282717,5.795699 1.83766,8.62287 1.413585,2.544453 3.675322,4.523472 5.795699,6.361133 l 9.471021,7.774718 c 3.109887,2.544453 5.65434,5.654341 7.63336,8.905586 4.66483,7.774719 5.512982,15.973512 1.554943,24.455023 -3.251246,7.067926 -8.198794,12.298191 -14.559927,16.397588 A 26.575401,26.575401 0 0 1 18.045739,96.342016 C 12.108681,95.211148 8.4333598,90.970392 5.8889065,85.740127 5.1821139,84.326542 4.6166799,83.195674 2.9203777,82.912957 1.5067926,82.63024 0.8,81.499372 0.8,80.085787 c 0,-2.544454 1.1308681,-4.240756 3.5339628,-4.523473 3.3926044,-0.848151 6.6438502,-0.989509 10.0364542,0 a 4.2407554,4.2407554 0 0 1 3.109888,2.968529 l 1.979019,6.078416 c 0.848151,2.685812 2.261736,4.80619 4.523472,6.926567 z m 21.203777,-21.91057 0.706793,0.141359 c 0.98951,-2.968529 0.565434,-5.937058 -0.706793,-8.905587 z m 7.350643,-8.481511 c 0.98951,2.827171 1.130868,5.371624 0.424076,8.057436 L 52.819933,65.101784 52.537216,61.143746 Z M 19.317965,20.856569 c -1.130868,1.696302 -1.130868,2.685812 0,4.382114 V 20.997928 Z M 50.558197,8.134303 H 50.27548 v 1.5549437 h 0.424075 V 7.9929445 Z M 76.002729,67.646237 A 25.161815,25.161815 0 0 0 73.882352,79.80307 c 0.282717,2.261736 1.272226,4.382114 2.82717,6.219774 0.848151,0.848151 1.554944,0.98951 2.82717,0.565434 4.382114,-1.413585 8.764228,-2.82717 13.429059,-3.81668 4.240756,-0.848151 8.340149,-0.989509 12.298189,0.565434 1.55495,0.565434 1.97902,1.413586 1.41359,2.685812 -0.14136,0 -0.28272,0.424076 -0.56544,0.424076 -0.56543,0.424075 -1.41358,-0.565434 -1.97902,0.706792 -0.28271,0.424076 -1.41358,0.282717 -2.40309,0.565434 -1.13087,0.282717 -2.685813,0.424076 -3.816681,0.848151 a 50.040914,50.040914 0 0 1 -30.250722,3.109888 c -6.785209,-1.837661 -9.47102,-7.067926 -8.764228,-13.429059 0.424076,-2.968529 0.98951,-6.078416 2.261736,-8.905586 2.827171,-6.643851 5.654341,-13.146342 8.764228,-19.648834 A 24.030947,24.030947 0 0 1 89.29043,35.840572 c 2.968529,-0.282717 6.078416,-0.282717 8.905586,0.565434 5.088904,0.989509 9.046944,3.958038 11.874114,8.481511 a 6.3611331,6.3611331 0 0 1 -0.28272,7.774718 c -1.27222,1.554944 -2.54445,2.82717 -4.24075,4.099397 A 55.836613,55.836613 0 0 1 77.981749,67.504879 l -1.837661,0.282717 z M 91.834883,40.505403 c -0.98951,0.989509 -1.696302,1.413585 -2.544453,1.83766 A 23.182796,23.182796 0 0 0 83.353372,50.25914 199.3155,199.3155 0 0 0 78.8299,60.154236 l -0.424076,1.413585 0.848151,-0.141358 c 4.947548,-2.120378 9.471021,-4.664831 13.429059,-8.340153 0.98951,-0.848151 1.837661,-1.979019 2.544453,-3.109887 0.848151,-1.413585 0.848151,-3.109887 0,-4.664831 a 73.506427,73.506427 0 0 0 -3.392604,-4.806189 z m -25.585891,34.20876 c -0.848151,2.261736 -1.696302,4.523473 0,7.067926 z m 5.937058,1.272227 h -0.424076 v 4.240755 h 0.282717 V 75.98639 Z m 29.68529,-26.858118 h 0.56543 c 0.42408,-0.706793 0.70679,-1.413585 -0.42407,-1.979019 v 1.837661 z m 7.06792,0.141359 h 0.56544 l -0.14136,-1.413586 h -0.42408 z m 11.30868,46.931026 c -0.42407,0 -1.13086,0.706793 -1.83766,0.565434 -1.13086,-0.141358 -2.26173,-0.565434 -3.25124,-1.130868 -0.84815,-0.565434 -0.84815,-2.261736 0.28271,-2.82717 1.83767,-1.413585 1.83767,-3.109887 2.26174,-4.947548 1.97902,-9.895096 3.67532,-19.931551 5.93706,-29.826647 0.84815,-4.240755 2.54445,-8.764227 3.67532,-13.2877 0.56543,-1.554944 1.6963,-2.544453 3.3926,-2.82717 1.41359,-0.141359 2.26174,-0.706793 3.39261,-1.979019 0.84815,-1.130868 2.12038,-1.837661 3.67532,-2.120378 3.25125,-0.565434 6.50249,-0.706793 9.61238,0 a 8.4815108,8.4815108 0 0 1 4.94755,2.968529 l 3.3926,5.088906 c 0.42408,0.706793 0.70679,1.413585 1.97902,1.413585 l 0.70679,0.98951 c 0.98951,-1.413585 2.54446,-1.413585 4.24076,-0.98951 0.42407,0 0.70679,0.565434 1.27223,0.98951 h 1.41358 c 0,0.424076 0,1.130868 -0.28272,1.554944 -0.28271,0.565434 -0.84815,1.272226 -1.41358,1.696302 l -1.97902,0.989509 c -5.37162,1.554944 -10.74325,1.413586 -15.97351,-0.282717 a 8.0574353,8.0574353 0 0 1 -4.66483,-3.533962 c -1.13087,0.565434 -1.41359,1.696302 -1.55495,2.685811 -1.13087,6.502492 -2.68581,12.863625 -3.67532,19.507475 l -2.68581,19.0834 v 0.424075 c -0.42408,2.261736 -1.13087,4.240756 -3.81668,4.664831 -2.4031,0.424076 -4.66483,1.130868 -6.92657,1.696302 -0.56543,0 -1.13087,-0.424075 -1.83766,-0.706792 z m 11.5914,-13.570417 c 0.84815,-0.565434 0.42408,-1.696302 0.7068,-2.685812 l -0.56544,0.848151 v 1.837661 z m 0.84815,-3.392604 0.14136,-2.261737 h -0.28271 l 0.28271,2.261737 z m -0.84815,3.958038 -0.56543,2.82717 v 2.403095 h 0.28272 c 0,-0.848151 0,-1.696302 -0.28272,-2.403095 0.98951,-0.989509 0.84815,-1.83766 0.56543,-2.82717 z m -2.40309,-21.203777 h -0.56544 l -4.94754,27.847627 h 0.70679 c 1.83766,-9.046945 2.54445,-18.517965 4.80619,-27.847627 z m 3.3926,13.146342 h 0.42408 v -1.272227 h -0.28272 v 1.272227 z m 77.88854,-33.643327 c 3.10989,0.98951 3.81668,2.403095 3.10989,5.654341 l -4.52347,34.915553 v 3.251246 l -0.56544,1.413585 c 0,0.706792 0,1.554943 -0.42407,2.544453 h -0.14136 c -1.6963,9.046945 -5.08891,20.49698 -6.07842,24.45502 a 83.401523,83.401523 0 0 1 -9.1883,25.16182 c -3.25125,6.07841 -7.77472,11.30868 -13.42906,14.984 -3.10989,2.12038 -11.87411,0.56543 -15.69079,-0.98951 a 4.8061895,4.8061895 0 0 1 -2.82717,-4.24075 c -0.42408,-2.26174 0.42407,-4.24076 0.98951,-6.5025 1.83766,-5.93705 2.68581,-8.62287 5.37162,-14.13585 2.40309,-5.51298 5.23026,-10.74324 7.91608,-15.83215 0.56543,-0.84815 4.52347,-6.21978 7.91607,-10.46053 l -4.38211,-0.84815 c -0.98951,-0.28272 -2.12038,-0.42408 -2.82717,-0.84815 -5.65434,-2.403098 -8.48151,-8.905589 -7.77472,-16.963025 0.98951,-9.47102 5.37162,-25.444532 9.8951,-32.512458 0.98951,-1.413585 2.26173,-2.261736 3.53396,-3.392604 l 1.13087,-1.413585 c 1.55494,-2.968529 3.95804,-5.088907 6.50249,-6.078416 4.24075,-1.837661 18.37661,0.706792 21.62785,1.83766 z m -35.7637,45.800159 0.42407,-9.753738 c -0.84815,3.251246 -1.6963,6.361133 -0.42407,9.895096 z m -12.15683,60.784159 0.42407,-3.67532 -0.28271,-0.14136 -0.42408,3.67532 h 0.28272 z m 4.94754,0.42408 0.42408,-5.37163 c -0.56543,1.83766 -1.41358,3.39261 -0.84815,5.37163 z m 12.72227,-62.197749 0.28272,-5.65434 h -0.28272 l -0.28272,5.65434 z m 1.83766,-2.82717 c -0.28272,3.533963 0,6.926567 1.6963,9.895096 l 0.84816,-0.706793 c 4.09939,-4.523472 7.06792,-9.612379 9.47102,-15.408078 0.98951,-7.067925 2.82717,-22.334645 3.25124,-27.140834 h -0.56543 l -0.84815,0.565434 0.98951,-4.80619 c -1.41359,1.413585 -2.12038,3.109888 -2.68582,4.80619 -0.56543,2.403094 -0.56543,4.240755 0,6.502491 0,0.565434 -0.42407,1.130868 -0.56543,1.696303 l -1.13087,-0.706793 c -0.14136,0.424075 -0.14136,1.130868 -0.42407,1.413585 -1.13087,0.141359 -2.12038,0.848151 -2.82717,0.141359 -0.98951,0 -1.41359,-1.413586 -1.97902,-2.403095 l -0.7068,2.544453 c -0.28271,0.848151 -0.84815,1.413585 -1.13086,2.120378 -1.27223,4.240755 -3.10989,16.963021 -3.39261,21.486494 z m -8.90558,62.197749 c 9.89509,-9.61238 12.72226,-19.64884 16.11487,-32.93654 h -0.28272 c -0.42408,0.14136 -0.70679,0.7068 -0.98951,1.27223 l -12.15683,22.19329 c -1.6963,3.25124 -1.27223,4.09939 -2.82717,7.63336 l -0.28272,1.83766 z m 17.10438,-29.68529 0.14135,-0.98951 -0.28271,0.98951 z m 0.28271,-1.6963 c 0.84815,-0.7068 0.42408,-1.41359 0.42408,-2.54446 z m 0.56544,-2.82717 c 0.98951,-0.98951 0.84815,-2.4031 1.13086,-3.67532 a 11.308681,11.308681 0 0 0 -1.13086,3.67532 z m 2.12037,-18.659327 1.41359,-4.523473 -0.84815,0.282717 -0.42408,1.837661 -0.42407,2.544453 h 0.28271 z m 1.69631,-8.057435 0.56543,-1.130869 c 1.6963,-5.512982 3.53396,-28.271702 4.38211,-33.926043 v -0.424075 l -1.83766,9.329661 z m -0.84815,37.035932 c 2.82717,-7.63336 4.24075,-15.54944 5.93705,-23.465515 l -0.56543,0.424075 z m 7.06792,-32.795177 c 2.12038,-7.774718 4.38212,-33.077892 5.93706,-41.135328 l -0.14136,-1.554943 c 0,-0.282717 -0.28272,-0.424076 -0.56543,-0.848151 l -6.21978,44.103856 0.84815,-0.565434 z M 234.8897,67.787596 a 25.161815,25.161815 0 0 0 -2.12038,12.156832 c 0.28272,2.261736 1.13087,4.382114 2.82717,6.219775 0.84815,0.848151 1.41359,0.989509 2.82717,0.565434 4.38212,-1.413585 8.76423,-2.827171 13.42906,-3.81668 4.0994,-0.848151 8.34015,-0.98951 12.15683,0.565434 1.69631,0.565434 2.12038,1.413585 1.41359,2.685812 0,0 -0.14136,0.424075 -0.42408,0.424075 -0.56543,0.424076 -1.41358,-0.565434 -2.12038,0.706793 0,0.424075 -1.41358,0.282717 -2.26173,0.565434 -1.27223,0.282717 -2.68581,0.424075 -3.81668,0.848151 a 50.040914,50.040914 0 0 1 -30.25072,2.968529 c -6.92657,-1.837661 -9.47102,-7.067926 -8.76423,-13.429059 0.42407,-2.968529 0.98951,-6.078416 2.12038,-8.905586 2.82717,-6.643851 5.65434,-13.146342 8.90558,-19.648834 A 24.030947,24.030947 0 0 1 248.1774,35.840572 c 2.82717,-0.282717 5.93706,-0.282717 8.90559,0.565434 5.0889,0.989509 9.04694,3.958038 11.73275,8.481511 a 6.3611331,6.3611331 0 0 1 -0.28271,7.774718 c -1.13087,1.554944 -2.4031,2.82717 -3.95804,4.099397 a 55.836613,55.836613 0 0 1 -27.70627,10.743247 z m 15.83215,-27.140835 -2.54445,1.837661 a 23.182796,23.182796 0 0 0 -5.93706,7.916077 199.3155,199.3155 0 0 0 -4.52347,9.895096 l -0.42408,1.413585 0.84815,-0.141359 c 4.94755,-2.120377 9.47103,-4.664831 13.42906,-8.340152 0.98951,-0.848151 1.69631,-1.979019 2.4031,-3.109887 0.98951,-1.413585 0.98951,-3.109888 0,-4.664831 a 73.506427,73.506427 0 0 0 -3.25125,-4.80619 z M 224.9946,74.572805 c -0.84815,2.261736 -1.41358,4.523472 0,7.067925 z m 6.07842,1.272226 h -0.28272 v 4.240756 h 0.28272 z m 29.68529,-26.858117 h 0.56543 c 0.42408,-0.706793 0.70679,-1.413586 -0.42407,-1.97902 l -0.14136,1.837661 z m 7.06792,0.141358 h 0.42408 v -1.413585 h -0.56544 v 1.413585 z m 15.97351,72.940998 c 0.28272,-0.84816 1.13087,-1.55495 0.28272,-2.82718 l -0.98951,2.26174 c 0,0.42408 -0.42407,0.70679 -0.98951,0.56544 -0.98951,0 -1.97902,-0.28272 -2.82717,-0.56544 -0.98951,-0.28272 -1.27222,-0.70679 -1.13087,-1.6963 1.41359,-7.06793 4.24076,-13.42906 7.06793,-19.79019 2.12038,-5.088909 4.24076,-10.177816 6.64385,-15.266722 0,-0.282717 -0.28272,-0.424076 -0.28272,-0.424076 -3.25124,-0.282717 -5.23026,-2.261736 -6.64385,-4.806189 A 96.123789,96.123789 0 0 1 273.62193,47.714687 c -0.56543,-3.81668 0.14136,-4.664831 4.52347,-4.947548 h 0.28272 c -0.28272,2.120378 0.70679,4.099397 1.13087,5.937058 l -0.14136,-5.7957 c 1.83766,-0.565434 3.53396,0 4.24076,1.413586 v -0.98951 l 0.84815,0.282717 0.70679,1.130868 c 1.55494,4.80619 3.25125,9.471021 5.08891,14.135852 a 62.621822,62.621822 0 0 0 6.78521,13.146341 l 2.68581,-6.078416 9.04694,-20.638343 c 0.84815,-2.120378 2.82717,-3.251246 5.08891,-2.968529 0.70679,0 0.70679,0.424076 0.42407,0.848151 l -0.42407,0.98951 0.28272,0.141359 0.28271,-0.565434 c 0.42408,-0.424076 0.7068,-1.413586 0.98951,-1.413586 1.13087,0 2.12038,0 3.39261,0.282717 v 0.848151 c 0,0.282718 0,0.706793 0.28271,0.98951 l 0.42408,-1.554944 c 1.41358,0.424076 1.41358,0.848152 0.98951,2.120378 -1.41359,3.81668 -2.26174,7.492001 -3.81668,11.308681 l -18.09389,45.658804 c -2.26174,5.37162 -4.24076,10.8846 -7.06793,15.97351 l -0.42407,0.42407 c -0.84815,2.82717 -3.10989,3.67533 -5.65434,3.67533 h -1.83766 z"
     fill="#16355f"
     id="path97"
     style="fill-rule:nonzero;stroke-width:1.41359" />
  <path
     d="m 25.590581,168.81632 v 3.81668 a 507.47707,507.47707 0 0 1 -2.120378,19.22476 l -0.565434,6.36113 c 0,0.56544 -0.282717,0.98951 -0.424075,1.41359 -0.141359,0.42407 -0.424076,0.70679 -0.848151,0.56543 l -0.282717,0.14136 h -1.413585 -0.141359 l -0.141358,-0.70679 h -0.141359 v 0.28271 c -0.141358,0.56544 -0.282717,0.56544 -0.706793,0.42408 -1.413585,-0.28272 -1.554943,-0.42408 -1.413585,-1.83766 0,-1.97902 0.282717,-3.67532 0.565434,-5.51298 0.141359,-2.96853 1.696303,-16.25623 1.837661,-19.22476 l 0.282717,-4.66483 v -0.42408 h -0.424075 l -4.240756,-0.42407 c -0.565434,0 -0.989509,0 -1.413585,-0.28272 -0.282717,0 -0.424075,-0.28272 -0.424075,-0.42408 l 0.282717,-0.28271 2.82717,-0.28272 h 3.533963 v -0.56543 l 0.565434,-6.78521 0.424075,-2.12038 c 0,-0.42408 0.424076,-0.84815 0.848151,-0.84815 l 1.272227,-0.14136 -0.282717,1.97902 -0.141359,1.55494 -0.424075,6.50249 c 0,0.28272 0,0.42408 0.424075,0.42408 v -0.56543 l 0.565434,-8.90559 0.282717,-1.13087 1.413586,0.28272 0.141358,0.14136 c 0.848151,0 0.706793,0.56543 0.706793,1.13087 l -0.424076,8.48151 c 0,0.42407 0,0.56543 0.565434,0.56543 l 3.109888,0.28272 c 0.424075,0 0.989509,0 1.413585,0.28271 l 0.565434,0.42408 -0.424076,0.42408 -2.120378,0.28271 h -3.251245 z m -2.82717,0 c -0.424076,0 -0.282717,0 -0.282717,0.42408 l -0.424076,5.93705 -2.261736,22.61737 c 0,0 -0.141358,0 0,0.28271 v 0.14136 h 0.141359 v -0.42407 c 0.706792,-5.65434 2.544453,-21.20378 2.82717,-26.5754 z m 1.979019,0 c 0,6.78521 -2.261736,23.60687 -2.82717,30.39208 0.565434,-1.13087 3.392604,-29.68529 2.82717,-30.25072 z m 0.848151,-10.60189 h -0.141358 c -0.282717,0.28272 -0.848151,8.34015 -0.424076,8.76423 0,-2.82717 0.282717,-5.7957 0.565434,-8.76423 z m 25.020457,31.09888 c 0,3.3926 1.413585,8.62286 -0.565434,8.76422 L 46.653,197.93617 c -0.565434,0 -1.130868,-0.42407 -1.696302,-0.70679 -0.848152,-0.42407 -1.413586,-1.13087 -1.272227,-1.97902 l 0.282717,-2.82717 c 0.424076,-3.53396 0.424076,-7.20928 0,-10.8846 V 180.125 l -0.706793,0.42408 -3.675321,4.66483 a 2.8271703,2.8271703 0 0 0 -0.565434,1.41358 l -0.98951,7.492 a 19.790192,19.790192 0 0 1 -1.413585,4.52348 c -0.424075,0.84815 -0.989509,1.41358 -1.979019,1.41358 a 9.895096,9.895096 0 0 1 -3.958038,0 c -0.706793,0 -0.98951,-0.56543 -0.98951,-1.41358 a 20.92106,20.92106 0 0 1 1.837661,-9.47102 l 3.251246,-19.22476 c 0.706792,-3.25125 1.554943,-6.36113 2.544453,-9.47102 0.424075,-1.55494 0.989509,-2.96853 1.837661,-4.24076 1.83766,-2.82717 4.240755,-3.53396 7.633359,-2.82717 0.98951,0.28272 1.696302,0.98951 2.120378,1.83766 0.424076,0.98951 0.565434,2.12038 0.565434,3.25125 0,4.24075 -0.141358,8.48151 -1.413585,12.72227 a 21.203777,21.203777 0 0 1 -2.544453,5.51298 l 2.403094,0.28271 c 0.848151,0.28272 1.413586,0.84816 1.837661,1.83767 l 0.424076,2.54445 z m -2.261736,-22.90008 v 0.42407 z m -1.837661,-9.61238 c 0.282717,3.81668 -0.141358,7.492 -0.565434,11.16732 l 0.141359,-0.70679 c 0.424075,-2.4031 0.706792,-4.94755 0.706792,-7.492 v -2.26174 z m -2.403095,0.70679 a 96.123789,96.123789 0 0 0 -4.523472,19.36612 21.203777,21.203777 0 0 0 3.958038,-9.18831 c 0.848152,-4.24075 1.130869,-8.90558 0.565434,-10.17781 z m -7.067925,13.85313 a 678.52087,678.52087 0 0 1 -1.979019,10.88461 h 0.424075 l 1.696302,-10.88461 z m 0.282717,21.34514 c 0.424075,0 0,-0.56543 0.141358,-0.84815 l -0.141358,0.84815 v 1.13087 z M 61.354285,187.617 a 10.46053,10.46053 0 0 0 -0.989509,5.08891 c 0,0.98951 0.424075,1.83766 1.130868,2.54445 0.424075,0.42408 0.706792,0.42408 1.130868,0.28272 l 5.65434,-1.55494 a 8.4815108,8.4815108 0 0 1 5.088907,0.28271 c 0.706792,0.14136 0.848151,0.56544 0.706792,0.98951 l -0.282717,0.28272 c -0.282717,0.14136 -0.565434,-0.28272 -0.848151,0.28272 0,0.14136 -0.565434,0 -0.989509,0.28271 -0.424076,0 -1.130868,0 -1.554944,0.28272 a 20.92106,20.92106 0 0 1 -12.722266,1.27223 c -2.82717,-0.84815 -3.958039,-2.96853 -3.533963,-5.65434 0,-1.27223 0.424076,-2.54446 0.848151,-3.67532 l 3.675321,-8.1988 a 9.895096,9.895096 0 0 1 8.057436,-5.65434 c 1.413585,-0.28272 2.544453,-0.28272 3.81668,0 2.120377,0.42408 3.675321,1.6963 4.947548,3.53396 0.706792,1.13087 0.565434,2.26174 -0.141359,3.39261 l -1.696302,1.6963 a 23.324155,23.324155 0 0 1 -11.591398,4.38211 l -0.848151,0.14136 z m 6.502492,-11.30868 -1.130868,0.70679 c -0.98951,0.98951 -1.837661,2.12038 -2.403095,3.39261 -0.706793,1.41358 -1.413585,2.68581 -1.837661,4.0994 l -0.282717,0.56543 h 0.424076 a 18.376607,18.376607 0 0 0 5.65434,-3.53396 l 0.98951,-1.27223 c 0.282717,-0.56543 0.282717,-1.41358 0,-1.97902 z M 57.11353,190.44417 c -0.282717,0.98951 -0.706793,1.97902 0,2.96853 z m 2.544453,0.56544 h -0.141358 v 1.83766 -1.83766 z m 12.298191,-11.30868 h 0.282717 c 0.141358,-0.14136 0.282717,-0.42408 -0.141359,-0.7068 v 0.7068 z m 2.968529,0.14136 h 0.282717 v -0.56544 h -0.282717 z m 38.873587,-23.32416 c 0.56544,0 0.56544,0.42408 0.56544,0.84815 l -0.84815,5.23027 c -1.41359,7.06792 -2.12038,11.45004 -2.82717,18.3766 l -1.69631,12.01548 -0.28271,3.10988 c 0,1.41359 -0.7068,2.12038 -1.97902,2.54446 -0.84815,0.14136 -1.41359,0.56543 -2.26174,0.14136 l -0.28272,0.14135 c -0.70679,0.28272 -1.41358,0 -2.26173,-0.28271 -0.28272,0 -0.42408,-0.42408 -0.42408,-0.84815 v -1.41359 l 2.26174,-13.42906 c 0,0 1.83766,-9.61238 2.68581,-12.86362 0.98951,-4.24076 1.55494,-9.61238 2.12038,-10.46053 l 0.42407,-1.41359 c 0.42408,-1.41358 0.98951,-1.83766 2.54446,-1.6963 h 0.14136 c 0.70679,-0.42408 1.41358,-0.14136 2.12037,0 z m -9.1883,41.70076 v -0.42407 l -0.14136,0.42407 z m 0.28272,-2.40309 0.42407,-2.82717 h -0.14136 l -0.42407,2.82717 z m 1.97902,-13.2877 0.14136,-0.98951 h -0.14136 l -0.14136,0.98951 z m 1.13086,12.29819 v -0.56544 z m -0.84815,-14.13585 0.14136,-1.13087 c -0.28271,0.42407 -0.28271,0.70679 -0.28271,1.13087 z m 0.56544,-4.52348 0.14136,-0.98951 -0.28272,0.98951 z m 16.25623,-0.56543 v 0.84815 c 0.56543,-0.84815 0.98951,-0.98951 1.97902,-0.70679 1.41358,0.42407 1.41358,0.28272 0.98951,1.83766 l -2.82717,10.46053 -1.41359,5.51298 v 2.82717 c 0.98951,0 1.41359,-0.56543 1.97902,-1.13087 0.70679,-0.70679 1.41358,-0.84815 2.40309,-0.98951 h 0.28272 l -0.14136,0.7068 h 0.14136 c 0.70679,-1.13087 1.55494,-0.7068 2.54445,-0.56544 v 0.56544 h 0.28272 l 0.28272,-0.28272 0.28272,0.42407 -0.14136,0.56544 c -0.42408,1.13087 -1.27223,1.6963 -2.26174,2.12038 -1.97902,0.84815 -3.95804,1.41358 -6.21977,1.41358 a 42.266196,42.266196 0 0 1 -4.80619,-0.84815 c -1.41359,-0.56543 -1.69631,-0.98951 -1.41359,-2.40309 l 1.55495,-5.65434 c 0.84815,-2.82718 1.41358,-5.93706 2.40309,-8.90559 0.42408,-1.55494 1.13087,-3.10989 1.6963,-4.52347 0.28272,-0.7068 0.70679,-0.98951 1.41359,-1.13087 h 0.98951 z m -4.66483,20.7797 v -2.40309 c -0.56544,1.41358 -0.56544,1.6963 0,2.40309 z m 2.68581,-1.97902 c -0.42408,0.84815 -0.42408,0.98951 0,1.55495 z m 3.3926,-21.48649 v -2.96853 c 0.84815,-0.28272 1.6963,0 2.4031,0.42407 0.70679,0.28272 0.42407,1.83767 -0.28272,2.12038 a 5.6543406,5.6543406 0 0 1 -2.12038,0.42408 z m -0.70679,-3.10989 c 0.42408,0.98951 0.14136,1.83766 0.28272,2.82717 l -0.56544,0.28272 c -0.56543,0 -1.27222,0 -1.6963,-0.56544 v -1.41358 c 0,-0.42408 0,-0.70679 0.42408,-0.84815 z m 16.96302,-0.98951 v 3.81668 a 507.47707,507.47707 0 0 1 -2.12038,19.22476 l -0.70679,6.36113 -0.28272,1.41359 c -0.14135,0.42407 -0.42407,0.70679 -0.84815,0.56543 l -0.28271,0.14136 h -1.41359 -0.14136 l -0.14136,-0.70679 h -0.14135 l -0.14136,0.28271 c 0,0.56544 0,0.56544 -0.56544,0.42408 -1.41358,-0.28272 -1.6963,-0.42408 -1.41358,-1.83766 0,-1.97902 0.28271,-3.67532 0.56543,-5.51298 0.14136,-2.96853 1.6963,-16.25623 1.83766,-19.22476 l 0.28272,-4.66483 v -0.42408 h -0.42408 l -4.24075,-0.42407 c -0.56544,0 -0.98951,0 -1.41359,-0.28272 -0.28271,0 -0.42407,-0.28272 -0.42407,-0.42408 l 0.28271,-0.28271 2.82717,-0.28272 h 3.53397 v -0.56543 l 0.56543,-6.78521 0.28272,-2.12038 c 0.14136,-0.42408 0.42407,-0.84815 0.98951,-0.84815 l 1.27222,-0.14136 -0.28271,1.97902 -0.14136,1.55494 -0.42408,6.50249 c 0,0.28272 0,0.42408 0.28272,0.42408 v -0.56543 l 0.70679,-8.90559 0.14136,-1.13087 1.55494,0.28272 0.14136,0.14136 c 0.84815,0 0.7068,0.56543 0.7068,1.13087 l -0.42408,8.48151 c 0,0.42407 0,0.56543 0.56543,0.56543 l 3.10989,0.28272 c 0.42408,0 0.84815,0 1.41359,0.28271 l 0.56543,0.42408 -0.42408,0.42408 -2.12037,0.28271 h -3.10989 z m -2.82717,0 c -0.42407,0 -0.42407,0 -0.42407,0.42408 0,1.83766 0,3.81668 -0.28272,5.93705 l -2.26174,22.61737 c 0,0 -0.14136,0 0,0.28271 v 0.14136 h 0.14136 v -0.42407 c 0.70679,-5.65434 2.54445,-21.20378 2.82717,-26.5754 z m 1.97902,0 c 0,6.78521 -2.26174,23.60687 -2.82717,30.39208 0.56543,-1.13087 3.3926,-29.68529 2.82717,-30.25072 z m 0.70679,-10.60189 c -0.42407,0.28272 -0.84815,8.34015 -0.42407,8.76423 z m 13.14634,10.60189 v 3.81668 a 507.47707,507.47707 0 0 1 -2.12037,19.22476 l -0.7068,6.36113 -0.28271,1.41359 c -0.14136,0.42407 -0.42408,0.70679 -0.84816,0.56543 l -0.28271,0.14136 h -1.41359 -0.14136 l -0.14135,-0.70679 h -0.14136 l -0.14136,0.28271 c 0,0.56544 0,0.56544 -0.56544,0.42408 -1.41358,-0.28272 -1.6963,-0.42408 -1.41358,-1.83766 0,-1.97902 0.28272,-3.67532 0.56543,-5.51298 0.14136,-2.96853 1.69631,-16.25623 1.83766,-19.22476 l 0.28272,-4.66483 v -0.42408 h -0.42407 l -4.24076,-0.42407 c -0.56543,0 -0.98951,0 -1.41359,-0.28272 -0.28271,0 -0.42407,-0.28272 -0.42407,-0.42408 l 0.28272,-0.28271 2.82717,-0.28272 h 3.53396 v -0.56543 l 0.56543,-6.78521 0.28272,-2.12038 c 0.14136,-0.42408 0.42408,-0.84815 0.98951,-0.84815 l 1.27223,-0.14136 -0.28272,1.97902 -0.14136,1.55494 -0.42407,6.50249 c 0,0.28272 0,0.42408 0.28271,0.42408 v -0.56543 l 0.7068,-8.90559 0.28271,-1.13087 1.41359,0.28272 0.14136,0.14136 c 0.84815,0 0.70679,0.56543 0.70679,1.13087 l -0.42408,8.48151 c 0,0.42407 0,0.56543 0.56544,0.56543 l 3.10988,0.28272 c 0.42408,0 0.98951,0 1.41359,0.28271 l 0.56543,0.42408 -0.42407,0.42408 -2.12038,0.28271 h -3.10989 z m -2.82717,0 c -0.42407,0 -0.42407,0 -0.42407,0.42408 0,1.83766 0,3.81668 -0.28272,5.93705 l -2.26174,22.61737 c 0,0 -0.14135,0 0,0.28271 v 0.14136 h 0.14136 v -0.42407 c 0.7068,-5.65434 2.54446,-21.20378 2.82717,-26.5754 z m 1.97902,0 c 0,6.78521 -2.26173,23.60687 -2.82717,30.39208 0.56544,-1.13087 3.39261,-29.68529 2.82717,-30.25072 z m 0.70679,-10.60189 c -0.42407,0.28272 -0.84815,8.34015 -0.42407,8.76423 z m 16.68031,-1.6963 c 0.70679,0 0.70679,0.42408 0.56543,0.84815 l -0.70679,5.23027 c -1.41358,7.06792 -2.26174,11.45004 -3.10989,18.3766 l -1.41358,12.01548 -0.28272,3.10988 c -0.14136,1.41359 -0.84815,2.12038 -2.12038,2.54446 -0.70679,0.14136 -1.41358,0.56543 -2.26173,0.14136 l -0.28272,0.14135 c -0.70679,0.28272 -1.41358,0 -2.12038,-0.28271 -0.42407,0 -0.56543,-0.42408 -0.56543,-0.84815 l 0.14136,-1.41359 2.12037,-13.42906 2.82717,-12.86362 c 0.98951,-4.24076 1.41359,-9.61238 1.97902,-10.46053 l 0.56544,-1.41359 c 0.42407,-1.41358 0.98951,-1.83766 2.54445,-1.6963 0.70679,-0.42408 1.41359,-0.14136 2.12038,0 z m -9.1883,41.70076 0.14135,-0.42407 -0.28271,0.42407 z m 0.28271,-2.40309 0.42408,-2.82717 z m 1.97902,-13.2877 0.28272,-0.98951 h -0.28272 z m 1.13087,12.29819 v -0.56544 z m -0.84815,-14.13585 0.28272,-1.13087 h -0.14136 l -0.28272,1.13087 z m 0.70679,-4.52348 v -0.98951 l -0.28272,0.98951 z m 15.26672,11.45004 a 10.46053,10.46053 0 0 0 -0.84815,5.08891 c 0,0.98951 0.42408,1.83766 1.13087,2.54445 0.28272,0.42408 0.56543,0.42408 1.13087,0.28272 l 5.65434,-1.55494 a 8.4815108,8.4815108 0 0 1 5.0889,0.28271 c 0.7068,0.14136 0.84815,0.56544 0.56544,0.98951 l -0.14136,0.28272 c -0.28272,0.14136 -0.70679,-0.28272 -0.84815,0.28272 0,0.14136 -0.70679,0 -0.98951,0.28271 -0.56544,0 -1.13087,0 -1.55495,0.28272 a 20.92106,20.92106 0 0 1 -12.72226,1.27223 c -2.82717,-0.84815 -3.95804,-2.96853 -3.67532,-5.65434 0.28271,-1.27223 0.42407,-2.54446 0.98951,-3.67532 1.13086,-2.82717 2.26173,-5.65434 3.67532,-8.1988 a 9.895096,9.895096 0 0 1 8.05743,-5.65434 c 1.27223,-0.28272 2.54446,-0.28272 3.67532,0 2.12038,0.42408 3.81668,1.6963 4.94755,3.53396 0.7068,1.13087 0.7068,2.26174 0,3.39261 l -1.83766,1.6963 a 23.324155,23.324155 0 0 1 -11.45004,4.38211 z m 6.50249,-11.30868 -0.98951,0.70679 c -1.13087,0.98951 -1.83766,2.12038 -2.40309,3.39261 l -1.97902,4.0994 -0.14136,0.56543 h 0.28272 a 18.376607,18.376607 0 0 0 5.65434,-3.53396 c 0.42407,-0.28272 0.70679,-0.84815 0.98951,-1.27223 0.42407,-0.56543 0.42407,-1.41358 0,-1.97902 z m -10.60189,14.13585 c -0.42407,0.98951 -0.70679,1.97902 0,2.96853 z m 2.4031,0.56544 v 1.83766 z m 12.43955,-11.30868 h 0.28272 c 0.14135,-0.14136 0.28271,-0.42408 -0.14136,-0.7068 v 0.7068 z m 2.82717,0.14136 h 0.28272 v -0.56544 h -0.14136 v 0.56544 z m 35.62234,17.66981 c 1.55495,-1.13087 2.82717,-2.4031 3.81668,-3.95804 l 1.27223,-2.54445 c 1.41359,-2.96853 0.84815,-5.93706 -0.42408,-8.76423 a 14.135851,14.135851 0 0 0 -2.82717,-4.24076 l -3.25124,-2.82717 -1.6963,-1.83766 c -2.12038,-2.40309 -2.4031,-4.94754 -0.7068,-7.63336 a 11.874115,11.874115 0 0 1 13.42906,-5.65434 c 1.69631,0.56544 2.54446,1.97902 2.12038,3.67532 0,0.42408 0,1.13087 -0.84815,0.84816 -0.42408,0.70679 -1.13087,0.42407 -1.6963,0.42407 l -0.28272,-1.83766 h -0.14136 l -0.14136,1.6963 c -0.56543,0.28272 -1.13086,0 -1.55494,0 l -0.56543,-0.98951 c 0,-0.70679 -0.28272,-1.41358 -0.7068,-1.97902 a 9.3296619,9.3296619 0 0 0 -4.66483,5.93706 c -0.28271,1.27223 0,2.4031 0.70679,3.53396 a 11.308681,11.308681 0 0 0 2.54446,2.82717 l 3.95804,3.10989 c 1.27222,1.13087 2.26173,2.26174 3.10988,3.67532 a 10.319172,10.319172 0 0 1 0.7068,10.31917 c -1.41359,2.82717 -3.39261,5.08891 -6.07842,6.78521 a 11.025964,11.025964 0 0 1 -8.48151,1.41359 c -2.54445,-0.42408 -4.0994,-2.12038 -5.08891,-4.24076 -0.28271,-0.70679 -0.56543,-1.13087 -1.41358,-1.27222 -0.56544,0 -0.7068,-0.56544 -0.7068,-1.27223 0,-0.98951 0.42408,-1.6963 1.41359,-1.83766 1.41359,-0.28272 2.82717,-0.42408 4.24076,0 0.56543,0.28272 0.98951,0.70679 1.27222,1.41358 l 0.84815,2.4031 c 0.28272,0.98951 0.84815,1.97902 1.83766,2.82717 z m 8.90559,-9.1883 h 0.28272 c 0.42407,-1.13087 0.14136,-2.4031 -0.28272,-3.67533 z m 2.96853,-3.53397 c 0.42407,1.13087 0.56543,2.26174 0.28272,3.39261 v -1.55495 z M 227.5919,167.96817 c -0.42408,0.70679 -0.42408,1.13087 0,1.83766 z m 13.14634,-5.23027 h -0.14136 v 0.7068 -0.7068 z m 12.72226,34.7742 c 1.41359,-1.13087 2.82717,-2.4031 3.81668,-3.95804 l 1.13087,-2.54445 c 1.41359,-2.96853 0.98951,-5.93706 -0.28271,-8.76423 a 14.135851,14.135851 0 0 0 -2.82718,-4.24076 l -3.3926,-2.82717 -1.6963,-1.83766 c -1.97902,-2.40309 -2.26174,-4.94754 -0.56544,-7.63336 a 11.874115,11.874115 0 0 1 13.42906,-5.65434 c 1.69631,0.56544 2.54446,1.97902 1.97902,3.67532 0,0.42408 0,1.13087 -0.70679,0.84816 -0.42408,0.70679 -1.13087,0.42407 -1.6963,0.42407 l -0.28272,-1.83766 h -0.28272 v 1.6963 c -0.70679,0.28272 -1.13086,0 -1.6963,0 l -0.42407,-0.98951 c -0.14136,-0.70679 -0.28272,-1.41358 -0.7068,-1.97902 a 9.3296619,9.3296619 0 0 0 -4.80619,5.93706 c -0.28271,1.27223 0,2.4031 0.7068,3.53396 a 11.308681,11.308681 0 0 0 2.40309,2.82717 l 3.95804,3.10989 c 1.41358,1.13087 2.26174,2.26174 3.10989,3.67532 a 10.319172,10.319172 0 0 1 0.70679,10.31917 c -1.41359,2.82717 -3.3926,5.08891 -6.07842,6.78521 a 11.025964,11.025964 0 0 1 -8.48151,1.41359 c -2.54445,-0.42408 -3.95804,-2.12038 -5.0889,-4.24076 -0.28272,-0.70679 -0.56544,-1.13087 -1.27223,-1.27222 -0.56543,0 -0.84815,-0.56544 -0.84815,-1.27223 0,-0.98951 0.56543,-1.6963 1.41358,-1.83766 1.41359,-0.28272 2.82717,-0.42408 4.24076,0 0.70679,0.28272 1.13087,0.70679 1.41358,1.41358 l 0.7068,2.4031 c 0.42407,0.98951 0.98951,1.97902 1.97902,2.82717 z m 8.76423,-9.1883 h 0.28272 c 0.42407,-1.13087 0.28272,-2.4031 -0.28272,-3.67533 z m 3.10989,-3.53397 c 0.42407,1.13087 0.42407,2.26174 0.14136,3.39261 v -1.55495 z m -13.85313,-16.82166 c -0.56544,0.70679 -0.56544,1.13087 0,1.83766 z m 13.00498,-5.23027 v 0.7068 z m 28.13034,5.65435 v -3.39261 c -0.56543,0.56544 -0.28271,1.13087 -0.28271,1.6963 l -0.14136,1.55495 c -1.41359,0.28271 -2.12038,-0.28272 -2.26174,-1.41359 v -1.27222 c 0,-0.7068 -0.28272,-1.41359 -0.84815,-2.12038 l -0.84815,0.42407 c -4.38212,2.26174 -7.77472,5.65434 -9.8951,10.31917 -1.41358,3.53397 -2.96853,7.06793 -3.81668,10.74325 a 21.203777,21.203777 0 0 0 -0.56543,4.80619 c 0,0.98951 0.28272,1.97902 0.70679,2.82717 a 8.9055864,8.9055864 0 0 0 3.67532,3.95804 c 1.41359,0.70679 2.54446,0.84815 3.95804,0.28272 1.41359,-0.7068 2.82717,-1.41359 3.95804,-2.68582 0.70679,-0.70679 1.13087,-1.6963 0.98951,-2.82717 h -2.26174 l -3.3926,-0.70679 c -0.42408,0 -0.84815,-0.28271 -1.13087,-0.56543 -0.42408,-0.28272 -0.42408,-0.70679 0,-1.13087 l 0.98951,-0.56543 2.96853,-0.7068 4.38211,-0.14136 h 1.55495 c 2.40309,0.14136 3.53396,1.27223 3.81668,3.67533 0.14135,1.6963 -0.28272,3.10988 -1.55495,4.24075 a 17.245739,17.245739 0 0 1 -13.14634,3.95804 l -4.24075,-0.70679 a 9.895096,9.895096 0 0 1 -5.93706,-4.24076 c -0.98951,-1.41358 -1.41359,-3.10989 -1.41359,-4.94755 0.28272,-3.25124 0.98951,-6.21977 2.12038,-9.04694 0.84815,-2.4031 1.83766,-4.66483 2.96853,-7.06793 a 21.203777,21.203777 0 0 1 7.06792,-8.19879 c 1.41359,-0.98951 2.96853,-1.97902 4.52348,-2.68581 2.82717,-1.41359 5.7957,-1.41359 8.76423,-0.28272 1.13086,0.42408 1.97901,1.27223 2.26173,2.4031 0.42408,1.13086 0,2.26173 -0.42407,3.25124 -0.28272,0.28272 -0.84816,0.42408 -1.41359,0.56544 z m -21.76921,22.90007 0.28272,-5.65434 c -0.56544,1.83766 -0.98951,3.67533 -0.28272,5.65434 z m 2.54445,-4.24075 c -0.14135,1.13087 -0.56543,2.40309 0,3.81668 z m 16.82167,5.37162 c 0.28271,-0.42407 0.42407,-0.84815 0,-1.55494 -0.28272,0.56543 -0.28272,1.13087 0,1.55494 z m 2.82717,0 h 0.28272 v -1.13087 h -0.14136 v 1.13087 z m 1.83766,-26.5754 v -0.84815 z m 11.87411,28.13035 c 0.7068,0.14135 0.84816,0.42407 0.98951,0.98951 0,1.13086 0,2.26173 0.28272,3.3926 0,0.56543 0,0.98951 -0.56543,1.13087 -0.98951,0.56543 -2.12038,0.70679 -3.39261,0.70679 l -0.28271,-0.14136 c 0,-2.26173 -0.28272,-4.38211 0.14135,-6.64385 l 2.12038,0.28272 c 0.42408,0 0.42408,0.42407 0.42408,0.70679 l 0.28271,4.24076 c 0.56544,-0.42408 0.14136,-0.98951 0.14136,-1.41359 v -1.55494 -1.6963 z m -3.53396,-0.56544 v 3.53397 c 0.14136,0.9895 -0.28272,2.12037 0,3.10988 -0.98951,0 -1.97902,0 -2.82717,-0.56543 a 1.2722266,1.2722266 0 0 1 -0.56543,-1.13087 l 0.42407,-3.53396 c 0,-0.42408 0.42408,-0.7068 0.84815,-0.84815 z"
     fill="#24c18e"
     id="path99"
     style="fill-rule:nonzero;stroke-width:1.41359" />
</svg>
