<?xml version="1.0" encoding="UTF-8" standalone="no"?>
<svg xmlns:dc="http://purl.org/dc/elements/1.1/" xmlns:cc="http://creativecommons.org/ns#" xmlns:rdf="http://www.w3.org/1999/02/22-rdf-syntax-ns#" xmlns:svg="http://www.w3.org/2000/svg" xmlns="http://www.w3.org/2000/svg" xmlns:xlink="http://www.w3.org/1999/xlink" xmlns:sodipodi="http://sodipodi.sourceforge.net/DTD/sodipodi-0.dtd" xmlns:inkscape="http://www.inkscape.org/namespaces/inkscape" version="1.0" width="350" height="350" id="svg2047" sodipodi:version="0.32" inkscape:version="1.0 (4035a4fb49, 2020-05-01)" sodipodi:docname="Wiktionary_small-es.svg" inkscape:output_extension="org.inkscape.output.svg.inkscape">
  <metadata id="metadata106">
    <rdf:RDF>
      <cc:Work rdf:about="">
        <dc:format>image/svg+xml</dc:format>
        <dc:type rdf:resource="http://purl.org/dc/dcmitype/StillImage"/>
        <dc:title/>
      </cc:Work>
    </rdf:RDF>
  </metadata>
  <sodipodi:namedview inkscape:window-height="705" inkscape:window-width="1366" inkscape:pageshadow="2" inkscape:pageopacity="0.0" guidetolerance="10.0" gridtolerance="10.0" objecttolerance="10.0" borderopacity="1.0" bordercolor="#666666" pagecolor="#ffffff" id="base" width="350px" height="350px" inkscape:showpageshadow="false" inkscape:zoom="1.4182101" inkscape:cx="254.34844" inkscape:cy="169.53405" inkscape:window-x="-8" inkscape:window-y="-8" inkscape:current-layer="svg2047" inkscape:document-rotation="0" showgrid="false" inkscape:window-maximized="1"/>
  <defs id="defs3">
    <linearGradient id="linearGradient3446">
      <stop style="stop-color:#f4e3ca;stop-opacity:1" offset="0" id="stop3448"/>
      <stop style="stop-color:#e9cc9d;stop-opacity:1" offset="1" id="stop3450"/>
    </linearGradient>
    <linearGradient id="linearGradient2917">
      <stop style="stop-color:#0036d4;stop-opacity:1;" offset="0" id="stop2919"/>
      <stop style="stop-color:#010057;stop-opacity:1;" offset="1" id="stop2921"/>
    </linearGradient>
    <linearGradient inkscape:collect="always" xlink:href="#linearGradient2917" id="linearGradient2335" gradientUnits="userSpaceOnUse" gradientTransform="matrix(2.0490606,-0.5064396,0.5798578,2.0796157,-647.12897,-304.35318)" x1="370.37161" y1="344.23257" x2="283.22876" y2="259.17615"/>
    <linearGradient inkscape:collect="always" xlink:href="#linearGradient3446" id="linearGradient2362" gradientUnits="userSpaceOnUse" gradientTransform="matrix(3.0529998,6.2279176e-8,4.5126126e-8,3.0530007,-2383.4084,666.99616)" x1="870.85938" y1="-140.09358" x2="795.29053" y2="-169.7764"/>
    <linearGradient inkscape:collect="always" xlink:href="#linearGradient3446" id="linearGradient3359" gradientUnits="userSpaceOnUse" gradientTransform="matrix(3.1645849,6.4555437e-8,4.6775456e-8,3.1645858,-2486.8507,682.02539)" x1="870.85938" y1="-140.09358" x2="795.29053" y2="-169.7764"/>
    <linearGradient gradientTransform="matrix(0.91136323,0,0,0.91136323,2.6548582,43.720246)" inkscape:collect="always" xlink:href="#linearGradient2917" id="linearGradient875" x1="271.18411" y1="238.38434" x2="31.953169" y2="144.51581" gradientUnits="userSpaceOnUse"/>
  </defs>
  <rect width="284.41919" height="283.32922" rx="28.985477" ry="38.857254" x="-2.6358929" y="68.971214" transform="matrix(0.98708519,-0.1601962,0.16919869,0.98558196,0,0)" style="fill:#e7c78d;fill-opacity:1;fill-rule:nonzero;stroke:#000000;stroke-width:3.42657;stroke-linecap:round;stroke-linejoin:round;stroke-miterlimit:4;stroke-dasharray:none;stroke-dashoffset:0;stroke-opacity:1" id="rect3418"/>
  <rect width="284.41898" height="283.32901" rx="28.985453" ry="38.857224" x="3.9629989" y="49.264782" transform="matrix(0.98708519,-0.1601962,0.16919869,0.98558196,0,0)" style="fill:url(#linearGradient3359);fill-opacity:1;fill-rule:nonzero;stroke:#000000;stroke-width:3.42656;stroke-linecap:round;stroke-linejoin:round;stroke-miterlimit:4;stroke-dasharray:none;stroke-dashoffset:0;stroke-opacity:1" id="rect3436"/>
  <g style="font-style:normal;font-weight:normal;font-size:259.194px;line-height:1.25;font-family:sans-serif;fill:url(#linearGradient875);fill-opacity:1;stroke:#000000;stroke-width:1.7401;stroke-miterlimit:4;stroke-dasharray:none" id="text25" transform="rotate(-10.273984)" aria-label="Ñ">
    <path id="path843" style="font-style:normal;font-variant:normal;font-weight:normal;font-stretch:normal;font-family:'Lucida Bright';-inkscape-font-specification:'Lucida Bright';fill:url(#linearGradient875);fill-opacity:1;stroke:#000000;stroke-width:1.7401;stroke-miterlimit:4;stroke-dasharray:none" d="M 211.3363,312.9654 95.154609,156.03153 v 121.62375 q 0,17.2121 2.784311,20.50265 2.78431,3.16399 18.35114,4.30302 l 2.27807,0.12656 v 7.84669 H 59.971049 v -7.84669 l 2.278072,-0.12656 q 15.566827,-1.13903 18.351138,-4.30302 2.78431,-3.29055 2.78431,-20.50265 V 155.90497 q 0,-17.33866 -2.78431,-20.50265 -2.784311,-3.29055 -18.351138,-4.30303 l -2.404632,-0.25312 v -7.72013 H 101.98883 L 208.8051,268.54299 V 155.90497 q 0,-17.2121 -2.91087,-20.50265 -2.78431,-3.29055 -18.22457,-4.30303 l -2.27808,-0.25312 v -7.72013 h 58.34397 v 7.72013 l -2.40464,0.25312 q -15.44026,1.01248 -18.22457,4.30303 -2.78432,3.29055 -2.78432,20.50265 V 312.9654 Z M 110.46832,107.43265 q 5.06238,-29.741496 28.98214,-29.741496 6.70766,0 14.55435,4.809264 l 4.42958,2.78431 q 6.83422,4.303026 13.41532,4.303026 12.40284,0 14.80747,-11.77004 h 7.84669 q -5.06238,29.614936 -29.1087,29.614936 -6.5811,0 -14.42779,-4.80926 l -4.42959,-2.784311 q -6.96077,-4.303025 -13.41531,-4.303025 -11.51692,0 -14.80747,11.896596 z"/>
  </g>
</svg>