<svg width="35mm" height="35mm" version="1.1" viewBox="0 0 35 35" xmlns="http://www.w3.org/2000/svg"><g transform="translate(-105 -148)"><g transform="matrix(.26 0 0 .26 105 148)"><rect width="132" height="132" fill="#fff"/><g><path d="m116 116h-3.2c-0.22 0-0.4-0.18-0.4-0.4v-11c0-0.22-0.18-0.4-0.4-0.4h-3.6v-3.6c0-0.22-0.18-0.4-0.4-0.4h-3.2c-0.22 0-0.4-0.18-0.4-0.4v-3.2c0-0.22 0.18-0.4 0.4-0.4h7.6v3.6c0 0.22 0.18 0.4 0.4 0.4h3.2c0.22 0 0.4 0.18 0.4 0.4v15c0 0.22-0.18 0.4-0.4 0.4zm-12 0h-3.2c-0.22 0-0.4-0.18-0.4-0.4v-3.6h3.6c0.22 0 0.4 0.18 0.4 0.4v3.2c0 0.22-0.18 0.4-0.4 0.4zm-20 0h-3.2c-0.22 0-0.4-0.18-0.4-0.4v-3.2c0-0.22-0.18-0.4-0.4-0.4h-7.2c-0.22 0-0.4-0.18-0.4-0.4v-7.2c0-0.22 0.18-0.4 0.4-0.4h3.6v3.6c0 0.22 0.18 0.4 0.4 0.4h24v4h-16c-0.22 0-0.4 0.18-0.4 0.4v3.2c0 0.22-0.18 0.4-0.4 0.4zm-16 0h-11c-0.22 0-0.4-0.18-0.4-0.4v-3.2c0-0.22 0.18-0.4 0.4-0.4h3.2c0.22 0 0.4-0.18 0.4-0.4v-3.6h3.6c0.22 0 0.4-0.18 0.4-0.4v-3.2c0-0.22-0.18-0.4-0.4-0.4h-3.6v-3.6c0-0.22-0.18-0.4-0.4-0.4h-7.2c-0.22 0-0.4-0.18-0.4-0.4v-3.2c0-0.22-0.18-0.4-0.4-0.4h-3.2c-0.22 0-0.4-0.18-0.4-0.4v-16h3.6c0.22 0 0.4 0.18 0.4 0.4v3.2c0 0.22 0.18 0.4 0.4 0.4h3.2c0.22 0 0.4-0.18 0.4-0.4v-3.2c0-0.22 0.18-0.4 0.4-0.4h7.2c0.22 0 0.4-0.18 0.4-0.4v-3.2c0-0.22 0.18-0.4 0.4-0.4h3.2c0.22 0 0.4 0.18 0.4 0.4v3.2c0 0.22 0.18 0.4 0.4 0.4h3.2c0.22 0 0.4-0.18 0.4-0.4v-11c0-0.22 0.18-0.4 0.4-0.4h3.2c0.22 0 0.4-0.18 0.4-0.4v-3.2c0-0.22-0.18-0.4-0.4-0.4h-3.2c-0.22 0-0.4-0.18-0.4-0.4v-3.2c0-0.22 0.18-0.4 0.4-0.4h3.2c0.22 0 0.4-0.18 0.4-0.4v-3.2c0-0.22-0.18-0.4-0.4-0.4h-20v-3.6c0-0.22-0.18-0.4-0.4-0.4h-3.2c-0.22 0-0.4-0.18-0.4-0.4v-7.6h4v3.6c0 0.22 0.18 0.4 0.4 0.4h3.2c0.22 0 0.4-0.18 0.4-0.4v-3.6h4v3.6c0 0.22 0.18 0.4 0.4 0.4h7.2c0.22 0 0.4-0.18 0.4-0.4v-7.2c0-0.22-0.18-0.4-0.4-0.4h-3.6v-4h7.6c0.22 0 0.4 0.18 0.4 0.4v7.2c0 0.22 0.18 0.4 0.4 0.4h3.6v3.6c0 0.22 0.18 0.4 0.4 0.4h3.2c0.22 0 0.4 0.18 0.4 0.4v3.2c0 0.22-0.18 0.4-0.4 0.4h-3.2c-0.22 0-0.4 0.18-0.4 0.4v15c0 0.22 0.18 0.4 0.4 0.4h7.6v3.6c0 0.22 0.18 0.4 0.4 0.4h3.2c0.22 0 0.4-0.18 0.4-0.4v-3.2c0-0.22-0.18-0.4-0.4-0.4h-3.6v-3.6c0-0.22-0.18-0.4-0.4-0.4h-3.2c-0.22 0-0.4-0.18-0.4-0.4v-3.2c0-0.22 0.18-0.4 0.4-0.4h3.2c0.22 0 0.4-0.18 0.4-0.4v-3.2c0-0.22 0.18-0.4 0.4-0.4h3.6v7.6c0 0.22 0.18 0.4 0.4 0.4h3.6v7.6c0 0.22 0.18 0.4 0.4 0.4h7.2c0.22 0 0.4 0.18 0.4 0.4v3.2c0 0.22 0.18 0.4 0.4 0.4h3.6v7.6c0 0.22-0.18 0.4-0.4 0.4h-3.2c-0.22 0-0.4-0.18-0.4-0.4v-3.2c0-0.22-0.18-0.4-0.4-0.4h-3.6v-3.6c0-0.22-0.18-0.4-0.4-0.4h-3.2c-0.22 0-0.4 0.18-0.4 0.4v3.2c0 0.22 0.18 0.4 0.4 0.4h3.6v20c0 0.22-0.18 0.4-0.4 0.4h-7.2c-0.22 0-0.4 0.18-0.4 0.4v3.2c0 0.22-0.18 0.4-0.4 0.4h-16v-3.6c0-0.22-0.18-0.4-0.4-0.4h-7.2c-0.22 0-0.4 0.18-0.4 0.4v15c0 0.22-0.18 0.4-0.4 0.4zm-16 0h-3.2c-0.22 0-0.4-0.18-0.4-0.4v-7.2c0-0.22 0.18-0.4 0.4-0.4h3.2c0.22 0 0.4 0.18 0.4 0.4v7.2c0 0.22-0.18 0.4-0.4 0.4zm-8 0h-27c-0.22 0-0.4-0.18-0.4-0.4v-27c0-0.22 0.18-0.4 0.4-0.4h27c0.22 0 0.4 0.18 0.4 0.4v27c0 0.22-0.18 0.4-0.4 0.4zm-3.6-4.4v-19c0-0.22-0.18-0.4-0.4-0.4h-19c-0.22 0-0.4 0.18-0.4 0.4v19c0 0.22 0.18 0.4 0.4 0.4h19c0.22 0 0.4-0.18 0.4-0.4zm68-3.6h-7.6v-3.6c0-0.22 0.18-0.4 0.4-0.4h7.6v3.6c0 0.22-0.18 0.4-0.4 0.4zm-48 0h-3.2c-0.22 0-0.4-0.18-0.4-0.4v-3.2c0-0.22 0.18-0.4 0.4-0.4h3.6v4zm-24 0h-11c-0.22 0-0.4-0.18-0.4-0.4v-11c0-0.22 0.18-0.4 0.4-0.4h11c0.22 0 0.4 0.18 0.4 0.4v11c0 0.22-0.18 0.4-0.4 0.4zm80-12h-3.6v-7.6c0-0.22 0.18-0.4 0.4-0.4h3.2c0.22 0 0.4 0.18 0.4 0.4v7.2c0 0.22-0.18 0.4-0.4 0.4zm-20-0.4v-11c0-0.22-0.18-0.4-0.4-0.4h-11c-0.22 0-0.4 0.18-0.4 0.4v11c0 0.22 0.18 0.4 0.4 0.4h11c0.22 0 0.4-0.18 0.4-0.4zm-20 0v-3.6h3.6c0.22 0 0.4-0.18 0.4-0.4v-7.2c0-0.22-0.18-0.4-0.4-0.4h-7.2c-0.22 0-0.4 0.18-0.4 0.4v3.2c0 0.22 0.18 0.4 0.4 0.4h3.2c0.22 0 0.4 0.18 0.4 0.4v3.6h-12c-0.22 0-0.4 0.18-0.4 0.4v3.2c0 0.22 0.18 0.4 0.4 0.4h11c0.22 0 0.4-0.18 0.4-0.4zm-16 0v-3.2c0-0.22-0.18-0.4-0.4-0.4h-3.2c-0.22 0-0.4 0.18-0.4 0.4v3.2c0 0.22 0.18 0.4 0.4 0.4h3.2c0.22 0 0.4-0.18 0.4-0.4zm32-3.6h-3.2c-0.22 0-0.4-0.18-0.4-0.4v-3.2c0-0.22 0.18-0.4 0.4-0.4h3.2c0.22 0 0.4 0.18 0.4 0.4v3.2c0 0.22-0.18 0.4-0.4 0.4zm-24-4.4v-3.2c0-0.22-0.18-0.4-0.4-0.4h-3.2c-0.22 0-0.4 0.18-0.4 0.4v3.2c0 0.22 0.18 0.4 0.4 0.4h3.2c0.22 0 0.4-0.18 0.4-0.4zm-24-3.6h-15c-0.22 0-0.4-0.18-0.4-0.4v-3.2c0-0.22 0.18-0.4 0.4-0.4h3.2c0.22 0 0.4-0.18 0.4-0.4v-3.2c0-0.22 0.18-0.4 0.4-0.4h3.6v3.6c0 0.22 0.18 0.4 0.4 0.4h7.6v3.6c0 0.22-0.18 0.4-0.4 0.4zm-24 0h-3.2c-0.22 0-0.4-0.18-0.4-0.4v-23c0-0.22 0.18-0.4 0.4-0.4h3.2c0.22 0 0.4 0.18 0.4 0.4v3.2c0 0.22 0.18 0.4 0.4 0.4h3.2c0.22 0 0.4-0.18 0.4-0.4v-7.6h4v7.6c0 0.22 0.18 0.4 0.4 0.4h3.6v3.6c0 0.22 0.18 0.4 0.4 0.4h3.2c0.22 0 0.4 0.18 0.4 0.4v3.6h-8v-3.6c0-0.22-0.18-0.4-0.4-0.4h-7.2c-0.22 0-0.4 0.18-0.4 0.4v15c0 0.22-0.18 0.4-0.4 0.4zm96-4h-3.2c-0.22 0-0.4-0.18-0.4-0.4v-3.2c0-0.22-0.18-0.4-0.4-0.4h-3.6v-7.6c0-0.22 0.18-0.4 0.4-0.4h3.6v3.6c0 0.22 0.18 0.4 0.4 0.4h3.2c0.22 0 0.4 0.18 0.4 0.4v7.2c0 0.22-0.18 0.4-0.4 0.4zm-24-0.4v-3.2c0-0.22-0.18-0.4-0.4-0.4h-15c-0.22 0-0.4 0.18-0.4 0.4v3.2c0 0.22 0.18 0.4 0.4 0.4h15c0.22 0 0.4-0.18 0.4-0.4zm-44 0.4h-3.6v-4h3.6c0.22 0 0.4 0.18 0.4 0.4v3.6zm-4-4h-7.6v-4h7.6c0.22 0 0.4 0.18 0.4 0.4v3.6zm-16 0h-3.2c-0.22 0-0.4-0.18-0.4-0.4v-3.2c0-0.22 0.18-0.4 0.4-0.4h3.6v3.6c0 0.22-0.18 0.4-0.4 0.4zm36-4h-7.2c-0.22 0-0.4-0.18-0.4-0.4v-3.2c0-0.22-0.18-0.4-0.4-0.4h-3.2c-0.22 0-0.4 0.18-0.4 0.4v3.2c0 0.22-0.18 0.4-0.4 0.4h-3.2c-0.22 0-0.4-0.18-0.4-0.4v-7.2c0-0.22-0.18-0.4-0.4-0.4h-3.6v-4h8v3.6c0 0.22 0.18 0.4 0.4 0.4h3.2c0.22 0 0.4-0.18 0.4-0.4v-3.6h7.6c0.22 0 0.4 0.18 0.4 0.4v3.6h-3.6c-0.22 0-0.4 0.18-0.4 0.4v3.2c0 0.22 0.18 0.4 0.4 0.4h3.6v3.6c0 0.22-0.18 0.4-0.4 0.4zm52-4h-3.6v-7.6c0-0.22-0.18-0.4-0.4-0.4h-3.2c-0.22 0-0.4-0.18-0.4-0.4v-3.2c0-0.22-0.18-0.4-0.4-0.4h-3.2c-0.22 0-0.4 0.18-0.4 0.4v7.2c0 0.22-0.18 0.4-0.4 0.4h-7.6v-7.6c0-0.22-0.18-0.4-0.4-0.4h-3.6v-3.6c0-0.22 0.18-0.4 0.4-0.4h3.2c0.22 0 0.4-0.18 0.4-0.4v-3.2c0-0.22 0.18-0.4 0.4-0.4h7.2c0.22 0 0.4 0.18 0.4 0.4v3.2c0 0.22 0.18 0.4 0.4 0.4h7.2c0.22 0 0.4 0.18 0.4 0.4v3.2c0 0.22 0.18 0.4 0.4 0.4h3.2c0.22 0 0.4 0.18 0.4 0.4v11c0 0.22-0.18 0.4-0.4 0.4zm-48 0h-3.6v-4h3.6c0.22 0 0.4 0.18 0.4 0.4v3.2c0 0.22-0.18 0.4-0.4 0.4zm-24 0h-3.2c-0.22 0-0.4-0.18-0.4-0.4v-3.6h4v3.6c0 0.22-0.18 0.4-0.4 0.4zm-4-4h-7.6v-3.6c0-0.22 0.18-0.4 0.4-0.4h3.2c0.22 0 0.4-0.18 0.4-0.4v-3.6h8v4h-3.6c-0.22 0-0.4 0.18-0.4 0.4v3.6zm16-4h-3.6v-3.6c0-0.22 0.18-0.4 0.4-0.4h3.6v4zm-8-4h-3.6v-3.6c0-0.22-0.18-0.4-0.4-0.4h-7.6v-3.6c0-0.22 0.18-0.4 0.4-0.4h11c0.22 0 0.4 0.18 0.4 0.4v7.2c0 0.22-0.18 0.4-0.4 0.4zm-12 0h-7.6v-3.6c0-0.22 0.18-0.4 0.4-0.4h7.6v4zm-12 0h-7.2c-0.22 0-0.4-0.18-0.4-0.4v-7.2c0-0.22 0.18-0.4 0.4-0.4h7.2c0.22 0 0.4 0.18 0.4 0.4v7.6zm92-12h-27c-0.22 0-0.4-0.18-0.4-0.4v-27c0-0.22 0.18-0.4 0.4-0.4h27c0.22 0 0.4 0.18 0.4 0.4v27c0 0.22-0.18 0.4-0.4 0.4zm-32 0h-3.6v-3.6c0-0.22 0.18-0.4 0.4-0.4h3.2c0.22 0 0.4 0.18 0.4 0.4v3.2c0 0.22-0.18 0.4-0.4 0.4zm-16 0h-3.6v-3.6c0-0.22 0.18-0.4 0.4-0.4h3.6v3.6c0 0.22-0.18 0.4-0.4 0.4zm-8 0h-3.6v-3.6c0-0.22-0.18-0.4-0.4-0.4h-3.6v-4h3.6c0.22 0 0.4-0.18 0.4-0.4v-7.2c0-0.22-0.18-0.4-0.4-0.4h-3.6v-3.6c0-0.22 0.18-0.4 0.4-0.4h7.2c0.22 0 0.4-0.18 0.4-0.4v-3.2c0-0.22-0.18-0.4-0.4-0.4h-7.2c-0.22 0-0.4-0.18-0.4-0.4v-3.2c0-0.22 0.18-0.4 0.4-0.4h11c0.22 0 0.4 0.18 0.4 0.4v3.2c0 0.22 0.18 0.4 0.4 0.4h7.2c0.22 0 0.4-0.18 0.4-0.4v-3.2c0-0.22 0.18-0.4 0.4-0.4h3.2c0.22 0 0.4 0.18 0.4 0.4v7.6h-12c-0.22 0-0.4 0.18-0.4 0.4v3.2c0 0.22 0.18 0.4 0.4 0.4h7.2c0.22 0 0.4 0.18 0.4 0.4v3.2c0 0.22-0.18 0.4-0.4 0.4h-3.2c-0.22 0-0.4 0.18-0.4 0.4v3.6h-3.6c-0.22 0-0.4-0.18-0.4-0.4v-3.2c0-0.22-0.18-0.4-0.4-0.4h-3.2c-0.22 0-0.4 0.18-0.4 0.4v12zm-8 0h-3.2c-0.22 0-0.4-0.18-0.4-0.4v-3.2c0-0.22 0.18-0.4 0.4-0.4h3.6v4zm-8 0h-27c-0.22 0-0.4-0.18-0.4-0.4v-27c0-0.22 0.18-0.4 0.4-0.4h27c0.22 0 0.4 0.18 0.4 0.4v27c0 0.22-0.18 0.4-0.4 0.4zm68-4.4v-19c0-0.22-0.18-0.4-0.4-0.4h-19c-0.22 0-0.4 0.18-0.4 0.4v19c0 0.22 0.18 0.4 0.4 0.4h19c0.22 0 0.4-0.18 0.4-0.4zm-72 0v-19c0-0.22-0.18-0.4-0.4-0.4h-19c-0.22 0-0.4 0.18-0.4 0.4v19c0 0.22 0.18 0.4 0.4 0.4h19c0.22 0 0.4-0.18 0.4-0.4zm68-3.6h-11c-0.22 0-0.4-0.18-0.4-0.4v-11c0-0.22 0.18-0.4 0.4-0.4h11c0.22 0 0.4 0.18 0.4 0.4v11c0 0.22-0.18 0.4-0.4 0.4zm-24 0h-3.2c-0.22 0-0.4-0.18-0.4-0.4v-7.6h3.6c0.22 0 0.4 0.18 0.4 0.4v7.2c0 0.22-0.18 0.4-0.4 0.4zm-32 0h-3.2c-0.22 0-0.4-0.18-0.4-0.4v-7.2c0-0.22 0.18-0.4 0.4-0.4h3.6v8zm-16 0h-11c-0.22 0-0.4-0.18-0.4-0.4v-11c0-0.22 0.18-0.4 0.4-0.4h11c0.22 0 0.4 0.18 0.4 0.4v11c0 0.22-0.18 0.4-0.4 0.4zm44-8h-3.2c-0.22 0-0.4-0.18-0.4-0.4v-3.6h4v4zm4-4h-3.6v-7.6c0-0.22 0.18-0.4 0.4-0.4h3.2c0.22 0 0.4 0.18 0.4 0.4v7.2c0 0.22-0.18 0.4-0.4 0.4z"/></g></g></g></svg>
