<svg width="800px" height="800px" fill="none" version="1.1" viewBox="0 0 24 24" xmlns="http://www.w3.org/2000/svg"><path d="m9 1.2a0.75 0.75 0 0 0-0.75 0.75v1.3c-0.26 0.02-0.5 0.043-0.74 0.075-1.2 0.16-2.1 0.51-2.9 1.2-0.73 0.73-1.1 1.7-1.2 2.9-0.032 0.23-0.055 0.48-0.075 0.74h-1.3a0.75 0.75 0 0 0-0.75 0.75 0.75 0.75 0 0 0 0.75 0.75h1.3c-0.0087 0.46-0.012 0.96-0.013 1.5h-1.3a0.75 0.75 0 0 0-0.75 0.75 0.75 0.75 0 0 0 0.75 0.75h1.3c5.4e-4 0.54 4e-3 1 0.013 1.5h-1.3a0.75 0.75 0 0 0-0.75 0.75 0.75 0.75 0 0 0 0.75 0.75h1.3c0.02 0.26 0.043 0.5 0.075 0.74 0.16 1.2 0.51 2.1 1.2 2.9 0.73 0.73 1.7 1.1 2.9 1.2 0.23 0.032 0.48 0.055 0.74 0.075v1.3a0.75 0.75 0 0 0 0.75 0.75 0.75 0.75 0 0 0 0.75-0.75v-1.3c0.46 0.0087 0.96 0.012 1.5 0.013v1.3a0.75 0.75 0 0 0 0.75 0.75 0.75 0.75 0 0 0 0.75-0.75v-1.3c0.54-5.5e-4 1-4e-3 1.5-0.013v1.3a0.75 0.75 0 0 0 0.75 0.75 0.75 0.75 0 0 0 0.75-0.75v-1.3c0.26-0.02 0.5-0.043 0.74-0.075 1.2-0.16 2.1-0.51 2.9-1.2 0.73-0.73 1.1-1.7 1.2-2.9 0.032-0.23 0.055-0.48 0.075-0.74h1.3a0.75 0.75 0 0 0 0.75-0.75 0.75 0.75 0 0 0-0.75-0.75h-1.3c0.0087-0.46 0.012-0.96 0.013-1.5h1.3a0.75 0.75 0 0 0 0.75-0.75 0.75 0.75 0 0 0-0.75-0.75h-1.3c-5.4e-4 -0.54-4e-3 -1-0.013-1.5h1.3a0.75 0.75 0 0 0 0.75-0.75 0.75 0.75 0 0 0-0.75-0.75h-1.3c-0.02-0.26-0.043-0.5-0.075-0.74-0.16-1.2-0.51-2.1-1.2-2.9-0.73-0.73-1.7-1.1-2.9-1.2-0.23-0.032-0.48-0.055-0.74-0.075v-1.3a0.75 0.75 0 0 0-0.75-0.75 0.75 0.75 0 0 0-0.75 0.75v1.3c-0.46-0.0087-0.96-0.012-1.5-0.013v-1.3a0.75 0.75 0 0 0-0.75-0.75 0.75 0.75 0 0 0-0.75 0.75v1.3c-0.54 5.4e-4 -1 4e-3 -1.5 0.013v-1.3a0.75 0.75 0 0 0-0.75-0.75zm3 3.5c1.9 0 3.3 0.0056 4.3 0.14 1 0.14 1.6 0.37 2 0.81 0.44 0.44 0.68 1 0.81 2 0.14 1 0.14 2.4 0.14 4.3 0 1.9-0.0056 3.3-0.14 4.3-0.14 1-0.37 1.6-0.81 2-0.44 0.44-1 0.68-2 0.81-1 0.14-2.4 0.14-4.3 0.14-1.9 0-3.3-0.0056-4.3-0.14-1-0.14-1.6-0.37-2-0.81-0.44-0.44-0.68-1-0.81-2-0.14-1-0.14-2.4-0.14-4.3 0-1.9 0.0056-3.3 0.14-4.3 0.14-1 0.37-1.6 0.81-2 0.44-0.44 1-0.68 2-0.81 1-0.14 2.4-0.14 4.3-0.14zm-2 1.5c-0.71 0-1.3-0.0039-1.7 0.062-0.49 0.066-0.98 0.23-1.3 0.6-0.36 0.36-0.53 0.85-0.6 1.3-0.066 0.49-0.062 1-0.062 1.7v4c0 0.71-0.0039 1.3 0.062 1.7 0.066 0.49 0.23 0.98 0.6 1.3 0.36 0.36 0.85 0.53 1.3 0.6 0.49 0.066 1 0.062 1.7 0.062h4c0.71 0 1.3 0.0038 1.7-0.062 0.49-0.066 0.98-0.23 1.3-0.6 0.36-0.36 0.53-0.85 0.6-1.3 0.066-0.49 0.062-1 0.062-1.7v-4c0-0.71 0.0038-1.3-0.062-1.7-0.066-0.49-0.23-0.98-0.6-1.3-0.36-0.36-0.85-0.53-1.3-0.6-0.49-0.066-1-0.062-1.7-0.062h-4zm0 1.5h4c0.71 0 1.2 0.0053 1.5 0.049 0.32 0.043 0.41 0.092 0.48 0.17 0.077 0.077 0.13 0.16 0.17 0.48 0.043 0.32 0.049 0.84 0.049 1.5v4c0 0.71-0.0053 1.2-0.049 1.5-0.043 0.32-0.092 0.41-0.17 0.48-0.077 0.077-0.16 0.13-0.48 0.17-0.32 0.043-0.84 0.049-1.5 0.049h-4c-0.71 0-1.2-0.0053-1.5-0.049-0.32-0.043-0.41-0.093-0.48-0.17-0.077-0.077-0.13-0.16-0.17-0.48-0.043-0.32-0.049-0.84-0.049-1.5v-4c0-0.71 0.0053-1.2 0.049-1.5 0.043-0.32 0.093-0.41 0.17-0.48s0.16-0.13 0.48-0.17c0.32-0.043 0.84-0.049 1.5-0.049z"/><style>path{fill:#000}@media (prefers-color-scheme:dark){path{fill:#fff}}</style></svg>
