<svg width="800px" height="800px" fill="none" version="1.1" viewBox="0 0 24 24" xmlns="http://www.w3.org/2000/svg"><title>Accesibility</title><path d="m12 1.2c-1.5 0-2.7 1.2-2.7 2.8s1.2 2.7 2.7 2.7 2.7-1.2 2.7-2.7-1.2-2.8-2.7-2.8zm0 1.5c0.7 0 1.2 0.55 1.2 1.3s-0.55 1.2-1.2 1.2-1.2-0.55-1.2-1.2 0.55-1.3 1.2-1.3zm-5.5 4.4c-1.2 0.023-2.2 1-2.2 2.3 0 0.98 0.63 1.9 1.6 2.2l2.2 0.73c0.14 0.046 0.22 0.073 0.28 0.096 0.058 0.022 0.065 0.028 0.056 0.023 0.084 0.052 0.13 0.15 0.12 0.25 0.0014-0.01 0.0017-4.8e-4 -0.018 0.058-0.021 0.062-0.052 0.14-0.1 0.28l-1.2 3.2c-0.56 1.5 0.51 3 2.1 3 0.8 0 1.5-0.43 1.9-1.1l0.92-1.6 0.92 1.6c0.4 0.69 1.1 1.1 1.9 1.1 1.6 0 2.6-1.6 2.1-3l-1.2-3.2c-0.052-0.13-0.083-0.22-0.1-0.28-0.02-0.058-0.02-0.068-0.018-0.058-0.013-0.098 0.032-0.19 0.12-0.25-0.0089 0.0054-0.0014-0.0011 0.056-0.023 0.061-0.023 0.14-0.051 0.28-0.096l2.2-0.73c0.93-0.31 1.6-1.2 1.6-2.2 0-1.5-1.3-2.5-2.8-2.2l-1.9 0.41c-0.11 0.023-0.16 0.033-0.21 0.044-1.9 0.39-3.9 0.39-5.8 0-0.049-0.01-0.099-0.021-0.21-0.044l-1.9-0.41c-0.18-0.038-0.35-0.054-0.53-0.051zm0.032 1.5c0.059-0.0011 0.12 0.0045 0.18 0.018l1.9 0.41c0.1 0.022 0.16 0.034 0.22 0.046 2.1 0.44 4.3 0.44 6.4 0 0.056-0.011 0.11-0.023 0.22-0.046l1.9-0.41c0.49-0.1 0.95 0.27 0.95 0.76 0 0.34-0.22 0.64-0.54 0.74l-2.2 0.73c-0.22 0.074-0.46 0.15-0.65 0.27-0.59 0.36-0.91 1-0.81 1.7 0.031 0.22 0.12 0.45 0.21 0.67l1.2 3.2c0.18 0.47-0.17 0.98-0.68 0.98-0.26 0-0.5-0.14-0.63-0.36l-1.6-2.8c-0.13-0.23-0.38-0.38-0.65-0.38s-0.52 0.14-0.65 0.38l-1.6 2.8c-0.13 0.23-0.37 0.36-0.63 0.36-0.51 0-0.86-0.51-0.68-0.98l1.2-3.2c0.084-0.22 0.18-0.45 0.21-0.67 0.094-0.69-0.23-1.4-0.81-1.7-0.19-0.12-0.43-0.19-0.65-0.27l-2.2-0.73c-0.32-0.11-0.53-0.41-0.53-0.74 0-0.44 0.35-0.77 0.77-0.78zm-2 5.1a0.75 0.75 0 0 0-0.28 0.078c-1.7 0.86-3 2.1-3 3.7 0 0.85 0.39 1.6 0.99 2.3 0.6 0.64 1.4 1.2 2.4 1.6 1.9 0.87 4.5 1.4 7.4 1.4 2.9 0 5.4-0.51 7.4-1.4 0.97-0.44 1.8-0.96 2.4-1.6 0.6-0.64 0.99-1.4 0.99-2.3 0-1.6-1.2-2.8-3-3.7a0.75 0.75 0 0 0-1 0.33 0.75 0.75 0 0 0 0.33 1c1.5 0.73 2.1 1.6 2.1 2.3 0 0.4-0.17 0.8-0.58 1.2-0.41 0.44-1.1 0.88-1.9 1.3-1.7 0.76-4.1 1.3-6.8 1.3-2.7 0-5.1-0.5-6.8-1.3-0.84-0.38-1.5-0.82-1.9-1.3-0.41-0.44-0.58-0.84-0.58-1.2 0-0.73 0.68-1.6 2.1-2.3a0.75 0.75 0 0 0 0.33-1 0.75 0.75 0 0 0-0.44-0.38 0.75 0.75 0 0 0-0.29-0.035z"/><style>path{fill:#000}@media (prefers-color-scheme:dark){path{fill:#fff}}</style></svg>
