<svg width="800px" height="800px" fill="none" version="1.1" viewBox="0 0 24 24" xmlns="http://www.w3.org/2000/svg"><path d="m12 1.2c-4.2 0-7.8 3.1-7.8 7v0.086c0.0096 2.2 0.97 4.3 2.6 5.9v2e-3h0.0019l1.1 1c0.16 0.15 0.25 0.36 0.25 0.58 0 1 0.86 1.9 1.9 1.9h3.7c1 0 1.9-0.86 1.9-1.9 0-0.22 0.091-0.43 0.25-0.58l1.1-1 2e-3 -2e-3c1.7-1.6 2.6-3.7 2.6-5.9v-0.086c0-3.9-3.5-7-7.8-7zm0 1.5c3.5 0 6.2 2.5 6.3 5.5v0.082c-0.0078 1.8-0.77 3.5-2.2 4.8l-1.1 1c-0.46 0.43-0.72 1-0.72 1.7 0 0.23-0.17 0.41-0.41 0.41h-3.7c-0.23 0-0.41-0.17-0.41-0.41 0-0.63-0.26-1.2-0.72-1.7l-1.1-1c-1.4-1.3-2.2-3.1-2.2-4.8v-2e-3 -0.08-2e-3c0.0012-3 2.7-5.5 6.3-5.5zm-2 16a0.75 0.75 0 0 0-0.75 0.75 0.75 0.75 0 0 0 0.75 0.75h4a0.75 0.75 0 0 0 0.75-0.75 0.75 0.75 0 0 0-0.75-0.75h-4zm0.67 2.5a0.75 0.75 0 0 0-0.75 0.75 0.75 0.75 0 0 0 0.75 0.75h2.7a0.75 0.75 0 0 0 0.75-0.75 0.75 0.75 0 0 0-0.75-0.75h-2.7z"/><style>path{fill:#000}@media (prefers-color-scheme:dark){path{fill:#fff}}</style></svg>
