<svg width="800px" height="800px" fill="none" version="1.1" viewBox="0 0 24 24" xmlns="http://www.w3.org/2000/svg"><path transform="rotate(180 12 12)" d="m20 20a0.75 0.75 0 0 0 0.75-0.75v-1a0.75 0.75 0 0 0-0.75-0.75 0.75 0.75 0 0 0-0.75 0.75v1a0.75 0.75 0 0 0 0.75 0.75zm-8 0a0.75 0.75 0 0 0 0.75-0.75v-3a0.75 0.75 0 0 0-0.75-0.75 0.75 0.75 0 0 0-0.75 0.75v3a0.75 0.75 0 0 0 0.75 0.75zm-8 0a0.75 0.75 0 0 0 0.75-0.75v-5a0.75 0.75 0 0 0-0.75-0.75 0.75 0.75 0 0 0-0.75 0.75v5a0.75 0.75 0 0 0 0.75 0.75zm16-3c1.5-1e-6 2.8-1.2 2.8-2.8-1e-6 -1.5-1.2-2.7-2.8-2.7-1.5 0-2.7 1.2-2.7 2.7 0 1.5 1.2 2.8 2.7 2.8zm0-1.5c-0.7 0-1.2-0.55-1.2-1.3s0.55-1.2 1.2-1.2 1.3 0.55 1.3 1.2c0 0.7-0.55 1.3-1.3 1.3zm-8-0.5c1.5 0 2.7-1.2 2.7-2.7s-1.2-2.7-2.7-2.7-2.7 1.2-2.7 2.7 1.2 2.7 2.7 2.7zm0-1.5c-0.7 0-1.2-0.55-1.2-1.2s0.55-1.2 1.2-1.2 1.2 0.55 1.2 1.2-0.55 1.2-1.2 1.2zm-8-0.5c1.5 0 2.7-1.2 2.7-2.7 0-1.5-1.2-2.8-2.7-2.8s-2.8 1.2-2.8 2.8c0 1.5 1.2 2.7 2.8 2.7zm0-1.5c-0.7 0-1.3-0.55-1.3-1.2 0-0.7 0.55-1.3 1.3-1.3s1.2 0.55 1.2 1.3c0 0.7-0.55 1.2-1.2 1.2zm16-0.5a0.75 0.75 0 0 0 0.75-0.75v-5a0.75 0.75 0 0 0-0.75-0.75 0.75 0.75 0 0 0-0.75 0.75v5a0.75 0.75 0 0 0 0.75 0.75zm-8-2a0.75 0.75 0 0 0 0.75-0.75v-3a0.75 0.75 0 0 0-0.75-0.75 0.75 0.75 0 0 0-0.75 0.75v3a0.75 0.75 0 0 0 0.75 0.75zm-8-2a0.75 0.75 0 0 0 0.75-0.75v-1a0.75 0.75 0 0 0-0.75-0.75 0.75 0.75 0 0 0-0.75 0.75v1a0.75 0.75 0 0 0 0.75 0.75z"/><style>path{fill:#000}@media (prefers-color-scheme:dark){path{fill:#fff}}</style></svg>
