<svg width="800px" height="800px" fill="none" version="1.1" viewBox="0 0 32 32" xmlns="http://www.w3.org/2000/svg"><title>Laravel</title><path d="m7.44 0.822c-1.35 0.612-2.6 1.47-3.9 2.17-0.718 0.467-1.57 0.801-2.21 1.35-0.151 1.22-0.0242 2.48-0.0659 3.71v16.1c0.249 0.659 1.1 0.807 1.63 1.21 3.38 1.93 6.74 3.91 10.1 5.81 0.627-0.0097 1.11-0.57 1.68-0.806 3.37-1.94 6.73-3.87 10.1-5.81 0.444-0.546 0.152-1.35 0.236-2.02v-4.63c1.82-1.05 3.65-2.1 5.47-3.15 0.446-0.544 0.152-1.35 0.237-2.02-0.0245-1.69 0.049-3.4-0.0368-5.07-0.403-0.521-1.14-0.703-1.67-1.09-1.41-0.814-2.83-1.63-4.24-2.44-0.694-0.116-1.25 0.542-1.87 0.802-1.47 0.858-2.96 1.68-4.41 2.56-0.298 0.579-0.0592 1.31-0.136 1.94v4.63c-1.59 0.912-3.17 1.82-4.76 2.74-0.0121-4.11 0.0242-8.22-0.018-12.3-0.319-0.539-1.05-0.676-1.54-1.05-1.46-0.842-2.93-1.68-4.39-2.52zm0.238 0.0646c0.0036 0.00158-0.00365-0.00202 0 0zm10.7 6.8c6.04e-4 -0.00343-0.0025 0.00775 0 0zm0.0459-0.113c0.0045-0.00916-0.0034 0.00497 0 0zm6.35-3.46c0.0048 0.00222-0.0024-0.00138 0 0zm-11.8 27c-0.0038-6.29e-4 0.0074 0.0025 0 0zm-0.116-0.0462c-0.0071-0.0031 0.0072 4e-3 0 0zm-11.6-26.7c9.44e-4 -0.0044-0.0024 0.00637 0 0zm6.16-2.61c1.58 0.912 3.17 1.82 4.75 2.74-1.58 0.912-3.17 1.82-4.75 2.74-1.59-0.912-3.17-1.82-4.76-2.74 1.59-0.912 3.17-1.82 4.76-2.74zm17.1 3.23c1.58 0.912 3.17 1.82 4.76 2.74-1.58 0.912-3.17 1.82-4.76 2.74-1.59-0.912-3.17-1.82-4.76-2.74 1.59-0.912 3.17-1.82 4.76-2.74zm-11.9 0.327v11.9c-1.59 0.913-3.17 1.83-4.76 2.74v-11.9c1.59-0.913 3.17-1.83 4.76-2.74zm-10.5 0.00102c1.58 0.912 3.17 1.83 4.75 2.74 0.0128 4.29-0.0255 8.59 0.019 12.9 0.294 0.522 1.02 0.634 1.47 0.991 1.41 0.796 2.81 1.59 4.22 2.39v5.47c-3.49-2.01-6.98-4.01-10.5-6.02v-18.5zm17.1 3.23c1.59 0.912 3.17 1.82 4.76 2.74 3.33e-4 1.81 6.67e-4 3.61 1e-3 5.42-1.59-0.912-3.17-1.82-4.76-2.74v-5.42zm10.5 0v5.42c-1.59 0.912-3.17 1.82-4.76 2.74v-5.42c1.59-0.912 3.17-1.82 4.76-2.74zm-10.9 6.24c1.58 0.912 3.17 1.82 4.75 2.74-3.49 1.99-6.97 3.98-10.5 5.97-1.58-0.896-3.16-1.79-4.75-2.69 3.48-2.01 6.97-4.01 10.5-6.02zm5.23 3.56v5.42c-3.49 2.01-6.98 4.01-10.5 6.02v-5.47c3.49-1.99 6.98-3.98 10.5-5.97z"/><style>path{fill:#000}@media (prefers-color-scheme:dark){path{fill:#fff}}</style></svg>
