<svg width="800px" height="800px" version="1.1" viewBox="0 0 20 20" xmlns="http://www.w3.org/2000/svg"><title>python</title><path d="m9.58 1.06c-4.35 0-4.08 1.91-4.08 1.91l0.00512 1.98h4.16v0.594h-5.81s-2.79-0.32-2.79 4.12c0 4.44 2.43 4.28 2.43 4.28h1.45v-2.06s-0.078-2.46 2.39-2.46h4.12s2.32 0.0371 2.32-2.26v-3.8s0.352-2.3-4.2-2.3zm-2.29 1.33c0.413 0 0.747 0.338 0.747 0.756 0 0.418-0.334 0.755-0.747 0.755-0.413 0-0.748-0.337-0.748-0.755 0-0.418 0.335-0.756 0.748-0.756zm8.84 2.95c-0.0777-6.42e-4 -0.156 0.00291-0.236 0.0109l0.0344-0.00182h-1.22c-0.232 0.0512-0.311 0.185-0.348 0.341-0.0234 0.903 0.0506 1.77-0.0544 2.6-0.119 0.827-0.842 1.53-1.67 1.57-5.97e-4 1.58e-5 -0.0012-1.68e-5 -0.0019 0-1.54 0.0423-3.1-0.00945-4.66 0.0273l-0.00544 0.00187h-0.00725c-1.12 0.0652-2.24 0.846-2.39 2.06l-0.00181 0.0072v0.0072c-0.085 1.06-0.0232 2.11-0.0417 3.12v0.0219c0.0269 0.558-0.0887 1.22 0.101 1.91l0.00544 0.02 0.00725 0.0182c0.268 0.663 0.796 1.09 1.37 1.36 0.577 0.268 1.21 0.391 1.78 0.459h0.00725l0.00544 0.0019c1.45 0.122 3.03 0.145 4.46-0.485v0.0019c0.713-0.31 1.35-1.03 1.24-1.91 8e-6 0.0032 3.6e-5 0.0066 4.5e-5 0.0099l-0.0036-0.0492c0.0019 0.0132 2e-3 0.0261 0.0036 0.0393-0.0016-0.592-0.0039-1.18-0.0055-1.78l-0.0019-0.25c0.55-9.32e-4 1.1 0.0027 1.65-0.0019h0.0272c1.42-0.121 2.33-1.4 2.57-2.64 0.301-1.46 0.274-3.03-0.208-4.47-0.334-1.02-1.24-1.98-2.41-1.99zm-6e-3 0.7c0.801 0.0136 1.5 0.721 1.75 1.51v0.00182c0.436 1.3 0.466 2.75 0.187 4.11v0.0038c-0.199 1.01-0.932 1.99-1.95 2.08-2 0.0163-4 0.0027-6 0.0072-0.16-0.0041-0.38 0.136-0.44 0.279-0.0604 0.143-0.0474 0.241-0.0417 0.324 0.00575 0.083 0.0176 0.153 0.0217 0.202 0.00835 0.293 0.173 0.434 0.427 0.488h3.72c0.0012 0.479 0.0023 0.958 0.0036 1.44v0.0255l0.0036 0.0237c0.0727 0.508-0.327 0.99-0.828 1.21v0.0019c-1.25 0.549-2.71 0.544-4.12 0.426-0.526-0.064-1.09-0.179-1.56-0.397-0.465-0.216-0.818-0.522-1.01-0.982-0.127-0.488-0.0438-1.07-0.0743-1.72-9.68e-5 -2e-3 9.93e-5 -0.0034 0-0.0055 0.0177-1.04-0.0381-2.06 0.0399-3.05 0.102-0.812 0.915-1.4 1.73-1.44 1.54-0.0357 3.09 0.0158 4.66-0.0273h0.0055c1.19-0.0483 2.17-1.01 2.34-2.17v-0.00547c0.103-0.803 0.0517-1.57 0.0525-2.33h0.901l0.0181-0.00182c0.0542-0.00545 0.108-0.00765 0.161-0.00675zm-3.76 9.36c-0.305-0.0043-0.583 0.114-0.766 0.302-0.187 0.191-0.286 0.436-0.312 0.687-0.0254 0.25 0.024 0.513 0.169 0.738 0.143 0.222 0.39 0.395 0.69 0.452 0.349 0.0802 0.692-0.0083 0.915-0.208 0.226-0.202 0.343-0.481 0.371-0.762 0.0286-0.28-0.0288-0.578-0.21-0.822-0.179-0.241-0.498-0.396-0.857-0.388zm-0.0072 0.694v4.6e-5h0.0217c0.174-0.0061 0.232 0.0401 0.286 0.113 0.0542 0.0728 0.0875 0.202 0.0743 0.332-0.0132 0.13-0.0716 0.247-0.14 0.308-0.0679 0.0606-0.135 0.0955-0.303 0.0546l-0.0109-0.0036-0.0109-0.0019c-0.131-0.0234-0.19-0.074-0.237-0.148-0.0472-0.0735-0.0706-0.181-0.0598-0.288 0.0108-0.107 0.055-0.205 0.116-0.268 0.061-0.0625 0.131-0.102 0.263-0.0984z"/><style>path{fill:#000}@media (prefers-color-scheme:dark){path{fill:#fff}}</style></svg>
