<svg width="800px" height="800px" fill="none" version="1.1" viewBox="0 0 14 14" xmlns="http://www.w3.org/2000/svg"><title>Python</title><path d="m6.94 1.04c-1.13 0-1.33 0.0131-1.76 0.118-0.302 0.0726-0.607 0.227-0.749 0.378-0.198 0.211-0.281 0.423-0.323 0.822-0.0275 0.262-0.0348 1.15-0.0101 1.24l0.0154 0.057 2.84 0.02v0.166 0.166l-2.17 0.015c-1.62 0.011-2.21 0.023-2.31 0.047-0.278 0.0645-0.507 0.197-0.729 0.421-0.176 0.178-0.226 0.25-0.35 0.501-0.232 0.47-0.331 0.894-0.382 1.63-0.0348 0.504-0.0027 0.976 0.0928 1.37 0.239 0.98 0.636 1.56 1.2 1.75l-6.84e-5 -0.00653c0.143 0.049 0.254 0.053 0.937 0.029l0.477-0.017 0.011-0.82c0.0121-0.905 0.0182-0.947 0.186-1.29 0.176-0.357 0.555-0.674 0.954-0.798 0.268-0.0829 0.703-0.0999 2.29-0.11 1.47-5e-3 1.51-0.00699 1.65-0.06 0.344-0.128 0.744-0.459 0.894-0.738 0.141-0.264 0.147-0.33 0.147-1.86 3.9e-4 -1.45-0.0132-1.71-0.102-1.97-0.137-0.398-0.598-0.817-1.05-0.954-0.33-0.0995-0.619-0.119-1.76-0.119zm-1.57 0.83c0.159 0.00951 0.308 0.0903 0.408 0.232 0.0698 0.0987 0.0778 0.131 0.0778 0.296 0 0.215-0.0579 0.327-0.228 0.44l-6.84e-5 -3.08e-4c-0.135 0.091-0.367 0.108-0.513 0.04-0.405-0.19-0.423-0.744-0.0316-0.946 0.0929-0.0478 0.191-0.0677 0.287-0.062zm4.74 2.05-3.5e-5 0.71c-5e-5 0.894-0.0405 1.16-0.235 1.52-0.182 0.341-0.584 0.664-0.953 0.765-0.202 0.06-0.224 0.06-1.89 0.05-1.12-4e-3 -1.73 0.00302-1.82 0.021-0.258 0.0511-0.503 0.196-0.758 0.449-0.256 0.254-0.366 0.442-0.419 0.715-0.0209 0.109-0.0269 0.6-0.0199 1.71 0.0105 1.69 0.00963 1.68 0.16 1.98 0.13 0.257 0.498 0.588 0.847 0.763 0.298 0.15 0.913 0.287 1.49 0.333l-6.84e-5 0.00328c1.37 0.109 2.46-0.167 3.03-0.767 0.291-0.309 0.368-0.622 0.368-1.5v-0.581l-0.0798-0.016c-0.0439-6e-3 -0.444-0.016-0.89-0.016-0.445 0-1.05-0.00699-1.35-0.017l-0.54-0.017v-0.089-0.089l0.722 0.017c1.72 0.039 2.98 0.047 3.34 0.021 0.558-0.0407 0.81-0.15 1.13-0.49 0.387-0.41 0.64-1.06 0.731-1.88 0.0463-0.415 0.035-1.11-0.0236-1.44-0.182-1.05-0.574-1.76-1.14-2.04l-0.172-0.087-1.52-0.02zm0.648 0.182c0.113-0.0024 0.242-0.0022 0.362 0.0028l0.436 0.00998 0.17 0.086c0.377 0.191 0.66 0.587 0.863 1.2 0.18 0.547 0.216 0.797 0.213 1.47-0.00288 0.638-0.0404 0.937-0.177 1.4-0.178 0.612-0.518 1.09-0.919 1.28-0.246 0.122-0.268 0.122-1.89 0.122-0.843 0-1.85-8e-3 -2.24-0.019l-0.709-0.019v0.278c0 0.267 0.00239 0.279 0.0575 0.294 0.0316 8e-3 0.483 0.019 1 0.019 0.52 2e-3 1.13 9e-3 1.37 0.019l0.421 0.016-0.00202 0.549c-0.00236 0.599-0.0284 0.765-0.158 1-0.259 0.478-1.12 0.881-1.97 0.925l-2.39e-4 -2.05e-4c-0.147 8e-3 -0.326 0.022-0.396 0.022-0.201 0.012-0.814-0.028-1.11-0.074-0.533-0.0822-0.809-0.167-1.11-0.342-0.383-0.223-0.658-0.564-0.733-0.909-0.0396-0.181-0.063-2.96-0.0268-3.19 0.0326-0.209 0.141-0.438 0.287-0.607 0.132-0.153 0.416-0.355 0.607-0.432l0.144-0.058 1.79-4.78e-4c1.75 0 1.79-1e-3 1.95-0.054 0.227-0.0731 0.362-0.145 0.58-0.309 0.423-0.318 0.649-0.76 0.719-1.41 0.0156-0.144 0.0284-0.485 0.0284-0.758v-0.495l0.185-0.017c0.0509-0.0054 0.146-0.0104 0.259-0.0128zm-2.15 6.67c-0.243-0.017-0.498 0.0954-0.632 0.367-0.0704 0.142-0.0669 0.421 0.00701 0.561 0.0965 0.184 0.25 0.296 0.48 0.352h1.71e-4c0.0281 0.0095 0.103 0.00949 0.166-5.13e-4 0.347-0.0389 0.586-0.297 0.587-0.634 7.88e-4 -0.387-0.294-0.623-0.607-0.645z"/><style>path{fill:#000}@media (prefers-color-scheme:dark){path{fill:#fff}}</style></svg>
