<svg width="128" height="128" fill="none" version="1.1" viewBox="0 0 33.867 33.867" xmlns="http://www.w3.org/2000/svg"><title>Sinclair QL</title><path d="m10.025 25.964c1.5961 0.028 2.6321-0.16801 4.0882-0.72803l5.1522 3.2762 1.9321-2.8001-4.2842-2.1561c2.5761-2.1561 3.6682-4.5922 3.6682-7.9804-0.028-5.6003-4.5362-10.193-10.221-10.221-5.7123-0.028-10.361 4.6482-10.361 10.305 0 5.5723 4.4522 10.193 10.024 10.305zm-6.3843-10.136c-0.084-4.0042 2.5481-7.5324 6.7763-7.5324 4.1722 0 6.5523 3.6962 6.4683 7.5044-0.084 3.7802-2.5481 7.1684-6.6363 7.1684-3.8642 0-6.5243-3.3882-6.6083-7.1404zm19.194 9.7445h11.033v-3.1082h-7.3924v-16.633h-3.6402z" stroke-linecap="round" stroke-width="1.163" aria-label="QL"/><style>path{fill:#000}@media (prefers-color-scheme:dark){path{fill:#fff}}</style></svg>
