<svg width="800px" height="800px" fill="none" version="1.1" viewBox="0 0 48 48" xmlns="http://www.w3.org/2000/svg"><title>React</title><g id="Q3_icons" transform="translate(0 .0477)" data-name="Q3 icons"><g><path d="m45.9 24c0-2.8-3-5.4-8-7.2l-0.9-0.3v-0.4c1.1-5.5 0.3-9.6-2.2-11.1s-6.2-0.1-10.2 3.4l-0.6 0.6-0.2-0.2h-0.2c-4.1-3.8-8.1-5.1-10.6-3.7s-3.2 5.3-2.2 10.4a4.4 4.4 0 0 1 0.2 1l-1.1 0.4c-4.9 1.7-7.8 4.3-7.8 7.1s3.2 5.6 8.2 7.4l0.7 0.2a3.6 3.6 0 0 0-0.2 1.1c-1 5-0.1 8.8 2.2 10.2s6.5 0.1 10.5-3.4l0.6-0.5 0.8 0.8c2.8 2.4 5.6 3.7 7.8 3.7a4 4 0 0 0 2.2-0.6c2.5-1.4 3.4-5.5 2.3-10.7v-0.2a4.3 4.3 0 0 1-0.1-0.5h0.3c5.3-1.9 8.5-4.6 8.5-7.5zm-2.9 0c0 1.2-2.2 3.3-6.5 4.7h-0.2a36.7 36.7 0 0 0-1.9-4.7c0.7-1.6 1.3-3.2 1.8-4.7l0.8 0.2c4 1.4 6 3.3 6 4.5zm-16.2 13.6-0.8-0.6a43.1 43.1 0 0 0 3.2-4l5.1-0.8c0.1 0.2 0.1 0.4 0.2 0.5a17.5 17.5 0 0 1 0.2 5.5 4.1 4.1 0 0 1-1.2 2.3c-1 0.6-3.7-0.2-6.7-2.9zm-1.3-4.4-1.4 1.8-1.6-1.8zm-13.7-14a31.9 31.9 0 0 0 1.9 4.8 33 33 0 0 0-1.9 4.9l-0.6-0.2a14.4 14.4 0 0 1-4.8-2.6 3.1 3.1 0 0 1-1.4-2.1c0-1.2 2-3.1 5.8-4.4zm10.7-4.4 1.5-1.7 1.5 1.7zm11-7.3c1.1 0.6 1.7 3.6 0.8 8a0.4 0.4 0 0 1-0.1 0.3l-5-0.8a43.1 43.1 0 0 0-3.2-4l0.6-0.5c3.2-2.8 5.8-3.6 6.9-3zm-16.7 10.6-0.8 1.3-0.7 1.3c-0.3-0.7-0.5-1.4-0.8-2.2zm-2.3 11.4c0.3-0.7 0.5-1.4 0.8-2.2l0.7 1.3 0.8 1.3zm16.7-5.5a33.7 33.7 0 0 1-1.7 3.2c-0.6 1.1-1.3 2.1-1.9 3.1h-7.2c-0.7-1.1-1.4-2.1-1.9-3.1a31 31 0 0 1-1.7-3.2 24 24 0 0 1 1.7-3.2 30.5 30.5 0 0 1 1.9-3 43.3 43.3 0 0 1 7.2 0c0.7 1 1.3 2 1.9 3a24 24 0 0 1 1.7 3.2zm0.8-4.6-0.8-1.3 2.3 0.5a18 18 0 0 1-0.8 2.1zm-0.8 10.5 0.8-1.3 0.7-1.4 0.9 2.3zm-9.3-19h0.1l-3.2 4-5 0.8c-0.1-0.3-0.1-0.5-0.2-0.8-0.8-4.1-0.2-6.9 0.8-7.4a1.3 1.3 0 0 1 0.9-0.2c1.4 0 3.8 1 6.5 3.4zm-8.3 22.3a2.9 2.9 0 0 1 0.2-0.9l5.1 0.7a33 33 0 0 0 3.2 4l-0.4 0.4a14.3 14.3 0 0 1-4.7 2.9 3.2 3.2 0 0 1-2.5 0.2c-1.1-0.6-1.7-3.3-0.9-7.3z"/><path d="m24 19.6a4.4 4.4 0 1 0 4.3 4.4 4.4 4.4 0 0 0-4.3-4.4z"/></g></g><style>path{fill:#000}@media (prefers-color-scheme:dark){path{fill:#fff}}</style></svg>
