<svg width="800px" height="800px" fill="none" version="1.1" viewBox="0 0 24 24" xmlns="http://www.w3.org/2000/svg"><title>Spring Boot</title><path d="m12 1.97c-5.52 0-10 4.49-10 10a9.98 9.98 0 0 0 3.21 7.33l0.22 0.194a0.856 0.856 0 1 1 9.96e-4 9.96e-4l0.149 0.132a9.96 9.96 0 0 0 6.44 2.35c5.28 0 9.61-4.11 9.98-9.29 0.274-2.54-0.476-5.76-1.75-9.6a9.21 9.21 0 0 1-1.06 1.89 9.98 9.98 0 0 0-7.17-3.03zm8.14 2.21c1.16 3.46 2.57 8.87 0.054 12.2-2.47 3.29-7.74 2.18-11.1 2.34 0 0-0.599 0.034-1.2 0.133 0 0 0.228-0.097 0.519-0.198 2.37-0.821 3.5-0.986 4.94-1.73 2.71-1.39 5.41-4.41 5.96-7.55-1.03 3.02-4.17 5.62-7.03 6.68-1.95 0.722-5.49 1.42-5.49 1.42a5.28 5.28 0 0 1-0.143-0.076c-2.4-1.17-2.47-6.38 1.89-8.06 1.92-0.736 3.75-0.332 5.82-0.825 2.21-0.525 4.77-2.18 5.8-4.34z"/><style>path{fill:#000}@media (prefers-color-scheme:dark){path{fill:#fff}}</style></svg>
