<svg width="800px" height="800px" fill="none" version="1.1" viewBox="0 0 24 24" xmlns="http://www.w3.org/2000/svg"><title>sysadmin</title><path d="m6 1.25c-0.943 0-1.67-0.00455-2.29 0.0801-0.63 0.0846-1.22 0.289-1.65 0.725-0.435 0.435-0.64 1.02-0.725 1.65-0.0846 0.63-0.0801 1.35-0.0801 2.29s-0.00455 1.67 0.0801 2.29c0.0846 0.63 0.289 1.22 0.725 1.65 0.435 0.435 1.02 0.64 1.65 0.725 0.63 0.0846 1.35 0.0801 2.29 0.0801h12c0.943 0 1.67 0.00458 2.29-0.0801 0.63-0.0846 1.22-0.289 1.65-0.725 0.435-0.435 0.64-1.02 0.725-1.65 0.0846-0.63 0.0801-1.35 0.0801-2.29s0.00455-1.67-0.0801-2.29c-0.0846-0.63-0.289-1.22-0.725-1.65-0.435-0.435-1.02-0.64-1.65-0.725-0.63-0.0846-1.35-0.0801-2.29-0.0801h-12zm0 1.5h12c0.943 0 1.63 0.00465 2.09 0.0664 0.46 0.0618 0.64 0.148 0.791 0.299 0.151 0.151 0.237 0.331 0.299 0.791 0.0618 0.46 0.0664 1.15 0.0664 2.09s-0.00464 1.63-0.0664 2.09c-0.0618 0.46-0.148 0.64-0.299 0.791-0.151 0.151-0.331 0.237-0.791 0.299-0.46 0.0618-1.15 0.0664-2.09 0.0664h-12c-0.943 0-1.63-0.00464-2.09-0.0664-0.46-0.0618-0.64-0.148-0.791-0.299-0.151-0.151-0.237-0.331-0.299-0.791-0.0618-0.46-0.0664-1.15-0.0664-2.09s0.00464-1.63 0.0664-2.09c0.0618-0.46 0.148-0.64 0.299-0.791 0.151-0.151 0.331-0.237 0.791-0.299 0.46-0.0618 1.15-0.0664 2.09-0.0664zm0 2.5a0.75 0.75 0 0 0-0.75 0.75 0.75 0.75 0 0 0 0.75 0.75h2a0.75 0.75 0 0 0 0.75-0.75 0.75 0.75 0 0 0-0.75-0.75h-2zm5 0a0.75 0.75 0 0 0-0.75 0.75 0.75 0.75 0 0 0 0.75 0.75h7a0.75 0.75 0 0 0 0.75-0.75 0.75 0.75 0 0 0-0.75-0.75h-7zm-5 7c-0.943 0-1.67-0.00464-2.29 0.08-0.63 0.0846-1.22 0.289-1.65 0.725-0.435 0.435-0.64 1.02-0.725 1.65-0.0846 0.63-0.0801 1.35-0.0801 2.29 0 0.943-0.00455 1.67 0.0801 2.29 0.0846 0.63 0.289 1.22 0.725 1.65 0.435 0.435 1.02 0.64 1.65 0.725 0.63 0.0846 1.35 0.0801 2.29 0.0801h12c0.943 0 1.67 0.00458 2.29-0.0801 0.63-0.0846 1.22-0.289 1.65-0.725 0.435-0.435 0.64-1.02 0.725-1.65 0.0846-0.63 0.0801-1.35 0.0801-2.29 0-0.943 0.00458-1.67-0.0801-2.29-0.0846-0.63-0.289-1.22-0.725-1.65-0.435-0.435-1.02-0.64-1.65-0.725-0.63-0.0846-1.35-0.08-2.29-0.08h-12zm0 1.5h12c0.943 0 1.63 0.00458 2.09 0.0664 0.46 0.0618 0.64 0.148 0.791 0.299 0.151 0.151 0.237 0.331 0.299 0.791 0.0618 0.46 0.0664 1.15 0.0664 2.09 0 0.943-0.00464 1.63-0.0664 2.09-0.0618 0.46-0.148 0.64-0.299 0.791-0.151 0.151-0.331 0.237-0.791 0.299-0.46 0.0618-1.15 0.0664-2.09 0.0664h-12c-0.943 0-1.63-0.00458-2.09-0.0664-0.46-0.0618-0.64-0.148-0.791-0.299-0.151-0.151-0.237-0.331-0.299-0.791-0.0618-0.46-0.0664-1.15-0.0664-2.09 0-0.943 0.00465-1.63 0.0664-2.09 0.0618-0.46 0.148-0.64 0.299-0.791 0.151-0.151 0.331-0.237 0.791-0.299 0.46-0.0618 1.15-0.0664 2.09-0.0664zm0 2.5a0.75 0.75 0 0 0-0.75 0.75 0.75 0.75 0 0 0 0.75 0.75h2a0.75 0.75 0 0 0 0.75-0.75 0.75 0.75 0 0 0-0.75-0.75h-2zm5 0a0.75 0.75 0 0 0-0.75 0.75 0.75 0.75 0 0 0 0.75 0.75h7a0.75 0.75 0 0 0 0.75-0.75 0.75 0.75 0 0 0-0.75-0.75h-7z"/><style>path{fill:#000}@media (prefers-color-scheme:dark){path{fill:#fff}}</style></svg>
