<svg class="icon" width="800px" height="800px" fill="none" version="1.1" viewBox="0 0 1024 1024" xmlns="http://www.w3.org/2000/svg"><path d="m516 167c-19.6 0.175-39.2 3.09-54.1 8.68l-416 156c-29.8 11.2-29.9 29.6-0.182 41l416 160c29.7 11.4 77.6 10.7 107-1.7l397-168v247l-24.6 81.9h71l-25.4-82.8v-256h-0.71c17.2-11.8 13.2-26.6-12.2-35.7l-404-144c-15-5.35-34.6-7.91-54.2-7.74zm-321 341v104c0 31.8 23.7 68 52.9 80.7l209 91c29.2 12.7 76.6 12.7 106 0.128l211-91.2c29.2-12.6 52.9-48.7 52.9-80.5v-104h-93.3l-153 64.5c-18.4 7.77-42.4 12-67.5 12v0.0025c-15.9 0-39.5-1.75-61-10l-173-66.5h-84.5z"/><style>path{fill:#000}@media (prefers-color-scheme:dark){path{fill:#fff}}</style></svg>
