<svg width="800px" height="800px" fill="none" version="1.1" viewBox="0 0 24 24" xmlns="http://www.w3.org/2000/svg"><path d="m12 3.25c-4.82 0-8.75 3.93-8.75 8.75 0 0.346 0.0224 0.686 0.0616 1.02-0.763 0.765-1.35 1.51-1.71 2.23-0.382 0.782-0.519 1.66-0.0703 2.38 0.426 0.681 1.2 0.975 2.03 1.07 0.766 0.091 1.65 0.0246 2.65-0.154 1.54 1.36 3.57 2.19 5.79 2.19 4.82 0 8.75-3.93 8.75-8.75 0-0.345-0.0223-0.685-0.0613-1.02 0.0296-0.0297 0.0636-0.06 0.0926-0.0897 0.763-0.779 1.34-1.53 1.67-2.27 0.336-0.742 0.438-1.58 0.0117-2.26-0.413-0.66-1.15-0.956-1.96-1.06-0.785-0.105-1.7-0.0437-2.73 0.141-1.54-1.36-3.57-2.19-5.78-2.19zm0 1.5c3.48 0 6.37 2.43 7.08 5.69-1.37 1.25-3.32 2.6-5.6 3.82-2.45 1.31-4.86 2.22-6.8 2.67-1.2-1.29-1.93-3.02-1.93-4.93 0-4.01 3.24-7.25 7.25-7.25zm7.84 2c0.17 0.00412 0.326 0.0157 0.466 0.0346 0.561 0.0754 0.805 0.249 0.883 0.373 0.0798 0.128 0.114 0.355-0.107 0.844-0.151 0.333-0.427 0.746-0.799 1.19-0.296-0.872-0.724-1.68-1.26-2.41 0.297-0.0261 0.578-0.0417 0.821-0.0357zm-0.602 5.53c-0.146 3.88-3.32 6.97-7.24 6.97-1.44 0-2.78-0.418-3.9-1.14 1.86-0.535 3.96-1.39 6.09-2.52 1.96-1.04 3.68-2.18 5.06-3.31zm-15.5 2.53c0.296 0.872 0.724 1.68 1.26 2.41-0.477 0.0421-0.899 0.0462-1.23 0.00656-0.595-0.0707-0.858-0.251-0.938-0.379-0.0842-0.135-0.115-0.391 0.146-0.926 0.155-0.317 0.419-0.698 0.761-1.11z"/><style>path{fill:#000}@media (prefers-color-scheme:dark){path{fill:#fff}}</style></svg>
