<svg width="34mm" height="34mm" version="1.1" viewBox="0 0 34 34" xmlns="http://www.w3.org/2000/svg"><g transform="translate(-75 -102)"><path d="m100 131q-1.5 0.75-3 1.1-1.6 0.38-3.3 0.38-5.1 0-8.1-2.9-3-2.9-3-7.8 0-4.9 3-7.8 3-2.9 8.1-2.9 1.7 0 3.3 0.38 1.6 0.38 3 1.1v4.2q-1.5-1-2.9-1.5-1.4-0.47-3-0.47-2.8 0-4.4 1.8-1.6 1.8-1.6 5 0 3.2 1.6 5 1.6 1.8 4.4 1.8 1.6 0 3-0.47 1.4-0.47 2.9-1.5zm-6.2-25h3.9l-3.9 3.6h-2.7z" stroke-width=".4" aria-label="Ć"/></g><style>path{fill:#000}@media (prefers-color-scheme:dark){path{fill:#fff}}</style></svg>
