<?xml version="1.0" encoding="UTF-8" standalone="no"?>
<svg
   width="24"
   height="24"
   viewBox="0 0 512 512"
   fill="none"
   version="1.1"
   id="svg1"
   xmlns="http://www.w3.org/2000/svg"
   xmlns:svg="http://www.w3.org/2000/svg">
  <defs
     id="defs1" />
  <path
     style="fill:#ffffff;stroke-width:1.88976"
     id="path2"
     d="M 497.87294,261.96695 A 241.87297,241.87297 0 0 1 255.99816,503.83751 241.87297,241.87297 0 0 1 14.126999,261.96333 241.87297,241.87297 0 0 1 256.00057,20.091568 241.87297,241.87297 0 0 1 497.87294,261.96454" />
  <path
     fill-rule="evenodd"
     clip-rule="evenodd"
     d="m 256,20.094009 c -133.63481,0 -241.87296,108.238151 -241.87296,241.872961 0,107.02878 69.23614,197.4288 165.38064,229.47697 12.09365,2.11639 16.62876,-5.1398 16.62876,-11.48897 0,-5.74448 -0.30234,-24.79198 -0.30234,-45.04884 -60.77058,11.18663 -76.49232,-14.81472 -81.32978,-28.42007 -2.72107,-6.95385 -14.51238,-28.42007 -24.79198,-34.16455 -8.46555,-4.53512 -20.5592,-15.72175 -0.30234,-16.02409 19.0475,-0.30234 32.65285,17.53579 37.18797,24.79198 21.76857,36.58329 56.5378,26.30368 70.4455,19.95452 2.11639,-15.72174 8.46555,-26.30369 15.4194,-32.35051 -53.81673,-6.04682 -110.0522,-26.90837 -110.0522,-119.42477 0,-26.30369 9.37258,-48.07225 24.79198,-65.00336 -2.41873,-6.04683 -10.88428,-30.8388 2.41873,-64.09634 0,0 20.25686,-6.34916 66.51506,24.79198 19.34984,-5.44214 39.90904,-8.16321 60.46824,-8.16321 20.55921,0 41.11841,2.72107 60.46824,8.16321 46.25821,-31.44348 66.51507,-24.79198 66.51507,-24.79198 13.30301,33.25754 4.83746,58.04951 2.41873,64.09634 15.4194,16.93111 24.79198,38.39733 24.79198,65.00336 0,92.81875 -56.53781,113.37795 -110.35454,119.42477 8.76789,7.55853 16.32642,22.07091 16.32642,44.7465 0,32.35051 -0.30234,58.35185 -0.30234,66.51506 0,6.34917 4.53512,13.9077 16.62877,11.48897 C 428.63683,459.39577 497.87296,368.69341 497.87296,261.96697 497.87296,128.33216 389.63481,20.094009 256,20.094009 Z"
     fill="#1b1f23"
     id="path1"
     style="stroke-width:64;fill:#808080" />
</svg>
