<svg width="24" height="24" version="1.1" viewBox="0 0 512 512" xmlns="http://www.w3.org/2000/svg"><path d="m498 256a242 242 0 0 1-242 242 242 242 0 0 1-242-242 242 242 0 0 1 242-242 242 242 0 0 1 242 242" fill="#fff"/><path d="m256 14.1c-134 0-242 108-242 242 0 107 69.2 197 165 229 12.1 2.12 16.6-5.14 16.6-11.5 0-5.74-0.302-24.8-0.302-45-60.8 11.2-76.5-14.8-81.3-28.4-2.72-6.95-14.5-28.4-24.8-34.2-8.47-4.54-20.6-15.7-0.302-16 19-0.302 32.7 17.5 37.2 24.8 21.8 36.6 56.5 26.3 70.4 20 2.12-15.7 8.47-26.3 15.4-32.4-53.8-6.05-110-26.9-110-119 0-26.3 9.37-48.1 24.8-65-2.42-6.05-10.9-30.8 2.42-64.1 0 0 20.3-6.35 66.5 24.8 19.3-5.44 39.9-8.16 60.5-8.16 20.6 0 41.1 2.72 60.5 8.16 46.3-31.4 66.5-24.8 66.5-24.8 13.3 33.3 4.84 58 2.42 64.1 15.4 16.9 24.8 38.4 24.8 65 0 92.8-56.5 113-110 119 8.77 7.56 16.3 22.1 16.3 44.7 0 32.4-0.302 58.4-0.302 66.5 0 6.35 4.54 13.9 16.6 11.5 95.5-32 165-123 165-229 0-134-108-242-242-242z" fill="#808080"/></svg>
