<?xml version="1.0" encoding="UTF-8" standalone="no"?>
<!-- Created with Inkscape (http://www.inkscape.org/) -->

<svg
   width="24"
   height="24"
   viewBox="0 0 135.46667 135.46667"
   version="1.1"
   id="svg1"
   xml:space="preserve"
   xmlns="http://www.w3.org/2000/svg"
   xmlns:svg="http://www.w3.org/2000/svg">
   <defs
     id="defs1"><linearGradient
       gradientUnits="userSpaceOnUse"
       id="Nepojmenovaný_přechod_27"
       x1="328.26999"
       x2="183.73"
       y1="508.04999"
       y2="3.95"
       gradientTransform="matrix(0.26458333,0,0,0.26458333,0,2.4560636e-6)"><stop
         offset="0"
         stop-color="#ffdb73"
         id="stop1" /><stop
         offset="0.08"
         stop-color="#fdad4e"
         id="stop2" /><stop
         offset="0.15"
         stop-color="#fb832e"
         id="stop3" /><stop
         offset="0.19"
         stop-color="#fa7321"
         id="stop4" /><stop
         offset="0.23"
         stop-color="#f6692f"
         id="stop5" /><stop
         offset="0.37"
         stop-color="#e84a5a"
         id="stop6" /><stop
         offset="0.48"
         stop-color="#e03675"
         id="stop7" /><stop
         offset="0.55"
         stop-color="#dd2f7f"
         id="stop8" /><stop
         offset="0.68"
         stop-color="#b43d97"
         id="stop9" /><stop
         offset="0.97"
         stop-color="#4d60d4"
         id="stop10" /><stop
         offset="1"
         stop-color="#4264db"
         id="stop11" /></linearGradient></defs><g
     id="layer1"><rect
       class="cls-1"
       height="123.04712"
       rx="28.371271"
       ry="28.371271"
       width="123.04712"
       x="6.2097707"
       y="6.2097731"
       id="rect11"
       style="fill:#808080;stroke-width:0.264583" /><path
       style="fill:#ffffff;stroke-width:0.999998"
       d="m 24.482821,108.38053 c 0.06224,-0.10068 7.26833,-8.35581 16.013557,-18.34472 C 49.241605,80.046903 56.438241,71.775246 56.488897,71.654345 56.53956,71.533445 48.948559,61.45972 39.620028,49.268282 30.291489,37.076843 22.659055,27.057277 22.659055,27.002583 c 0,-0.05469 6.391761,-0.09901 14.203912,-0.09847 l 14.203911,9.44e-4 9.822367,12.996974 c 5.4023,7.148331 9.866537,12.997974 9.920527,12.999203 0.05401,0.0014 5.210733,-5.846242 11.459429,-12.994399 l 11.361256,-12.996607 6.902413,-0.0036 6.9024,-0.0036 -0.47944,0.569786 c -0.26369,0.313381 -7.037575,8.06485 -15.053061,17.225478 -8.015483,9.160629 -14.56601,16.726007 -14.556715,16.811946 0.0093,0.08595 5.453786,7.348568 12.098863,16.139167 6.645072,8.790591 14.620123,19.342415 17.722323,23.448485 l 5.64037,7.46559 -13.921974,-0.002 -13.921967,-0.002 L 74.082026,94.311052 C 68.097128,86.473771 63.157057,80.064628 63.104094,80.068508 c -0.05299,0.0037 -5.686386,6.413227 -12.518706,14.243003 l -12.422401,14.235949 -6.896653,0.008 c -4.311475,0.005 -6.854245,-0.0605 -6.783513,-0.17501 z M 95.996408,99.656056 C 95.736591,99.311786 88.479375,89.713313 79.869264,78.326108 71.259145,66.938903 60.346282,52.491525 55.618443,46.22081 l -8.596069,-11.401293 -4.092655,-0.01 c -2.250953,-0.0055 -4.092649,0.03585 -4.092649,0.09187 0,0.05602 7.608435,10.044499 16.907632,22.196626 9.299203,12.152118 20.531842,26.839833 24.96143,32.639367 l 8.05379,10.5446 h 3.85444 3.854451 z"
       id="path1" /></g></svg>
