<?xml version="1.0" encoding="UTF-8" standalone="no"?>
<!-- Created with Inkscape (http://www.inkscape.org/) -->

<svg
   width="282.79861mm"
   height="47.230106mm"
   viewBox="0 0 282.79861 47.230106"
   version="1.1"
   id="svg1"
   xmlns="http://www.w3.org/2000/svg"
   xmlns:svg="http://www.w3.org/2000/svg">
  <defs
     id="defs1">
    <radialGradient
       id="radialGradient21983"
       gradientUnits="userSpaceOnUse"
       cx="769.17999"
       cy="1508"
       r="765.5"
       gradientTransform="matrix(1.0068,0,0,0.60747,-171.71,242.56)">
      <stop
         id="stop21867"
         style="stop-color:#ffeeaa"
         offset="0" />
      <stop
         id="stop21869"
         style="stop-color:#ffb380"
         offset=".47780" />
      <stop
         id="stop21871"
         style="stop-color:#550044"
         offset="1" />
    </radialGradient>
  </defs>
  <g
     id="layer1"
     transform="translate(36.51251,-124.88332)">
    <g
       id="g22111"
       transform="matrix(0.18470562,0,0,0.18470562,-1.7809951,-39.885171)">
      <g
         id="g21873"
         transform="translate(-25.226,-138.74)">
        <path
           id="path16464"
           style="fill:url(#radialGradient21983)"
           d="m -162.81,1030.8 h 1531 v 255.65 h -1531 z" />
        <g
           id="g18978"
           style="opacity:0.75481"
           transform="matrix(1.0011,0,0,1,39.54,-827.64)">
          <g
             id="g18872"
             transform="translate(0,127.39)">
            <g
               id="g4667"
               transform="matrix(0,-0.46789,1.2755,0,-141.93,1578.7)">
              <g
                 id="g4669"
                 transform="translate(-1.72,1.3029)">
                <path
                   id="path4671"
                   style="fill:#ffa0b1"
                   d="m 495.09,1437.3 -135.47,54.2 h 135.47 v -54.156 z"
                   transform="matrix(-0.99576,0,0,-0.99909,32.991,1441.7)" />
                <path
                   id="path4673"
                   d="m -460,5.6898 v 109.07 L -323.92,60.2068 -460,5.6858 Z"
                   style="fill:#ffd292" />
                <path
                   id="path4675"
                   style="fill:#94cce9"
                   d="M -460,114.76 V 223.83 L -323.92,169.277 -460,114.756 Z" />
                <path
                   id="path4677"
                   d="M -460,223.84 V 332.91 L -323.92,278.357 -460,223.836 Z"
                   style="fill:#abc3d4" />
                <path
                   id="path4679"
                   d="M -460,332.91 V 441.98 L -323.92,387.427 -460,332.906 Z"
                   style="fill:#ffa0b1" />
                <path
                   id="path4681"
                   style="fill:#ffd292"
                   d="M -460,441.99 V 551.06 L -323.92,496.507 -460,441.986 Z" />
                <path
                   id="path4683"
                   d="M -460,551.06 V 660.13 L -323.92,605.577 -460,551.056 Z"
                   style="fill:#94cce9" />
                <path
                   id="path4685"
                   style="fill:#abc3d4"
                   d="M -460,660.13 V 769.2 L -323.92,714.647 -460,660.126 Z" />
                <path
                   id="path4687"
                   style="fill:#ffa0b1"
                   d="M -460,769.21 V 878.28 L -323.92,823.727 -460,769.206 Z" />
                <path
                   id="path4689"
                   d="M -460,878.28 V 987.35 L -323.92,932.797 -460,878.276 Z"
                   style="fill:#ffd292" />
                <path
                   id="path4691"
                   style="fill:#94cce9"
                   d="m -460,987.36 v 109.07 L -323.92,1041.877 -460,987.356 Z" />
                <path
                   id="path4693"
                   style="fill:#abc3d4"
                   d="m 359.53,291.5 135.56,54.125 V 291.5 Z"
                   transform="matrix(-0.99576,0,0,-0.99909,32.991,1441.7)" />
              </g>
              <g
                 id="g4695"
                 transform="translate(-179.67,-53.458)">
                <path
                   id="path4697"
                   d="M -145.97,441.96 V 332.89 l -136.08,54.553 136.08,54.521 z"
                   style="fill:#d7b4d5" />
                <path
                   id="path4699"
                   d="M -145.97,332.89 V 223.82 l -136.08,54.553 136.08,54.521 z"
                   style="fill:#a7d8d7" />
                <path
                   id="path4701"
                   style="fill:#dad292"
                   d="M -145.97,223.81 V 114.74 l -136.08,54.553 136.08,54.521 z" />
                <path
                   id="path4703"
                   d="M -145.97,114.74 V 6.36 l -136.08,53.854 z"
                   style="fill:#ffb997" />
                <path
                   id="path4705"
                   style="fill:#d7b4d5"
                   d="M -145.97,878.26 V 769.19 l -136.08,54.553 136.08,54.521 z" />
                <path
                   id="path4707"
                   style="fill:#a7d8d7"
                   d="M -145.97,769.18 V 660.11 l -136.08,54.553 136.08,54.521 z" />
                <path
                   id="path4709"
                   d="M -145.97,660.11 V 551.04 l -136.08,54.553 136.08,54.521 z"
                   style="fill:#dad292" />
                <path
                   id="path4711"
                   style="fill:#ffb997"
                   d="M -145.97,551.03 V 441.96 l -136.08,54.553 136.08,54.521 z" />
                <path
                   id="path4713"
                   d="m -145.97,1205.1 v -108.24 l -136.08,54.553 z"
                   style="fill:#a7d8d7" />
                <path
                   id="path4715"
                   style="fill:#dad292"
                   d="M -145.97,1096.9 V 987.83 l -136.08,54.553 136.08,54.521 z" />
                <path
                   id="path4717"
                   d="M -145.97,987.83 V 878.76 l -136.08,54.553 136.08,54.521 z"
                   style="fill:#ffb997" />
              </g>
            </g>
            <g
               id="g4771"
               transform="matrix(0,0.46789,-1.2755,0,1267.2,2011.1)">
              <g
                 id="g4773"
                 transform="translate(-1.72,1.3029)">
                <path
                   id="path4775"
                   style="fill:#ffa0b1"
                   d="m 495.78,291.5 v 54.125 l 135.47,-54.12 H 495.78 Z"
                   transform="matrix(0.99576,0,0,0.99909,-953.68,-339.63)" />
                <path
                   id="path4777"
                   style="fill:#ffd292"
                   d="m -460,5.6898 v 109.07 L -323.92,60.2068 -460,5.6858 Z" />
                <path
                   id="path4779"
                   d="M -460,114.76 V 223.83 L -323.92,169.277 -460,114.756 Z"
                   style="fill:#94cce9" />
                <path
                   id="path4781"
                   style="fill:#abc3d4"
                   d="M -460,223.84 V 332.91 L -323.92,278.357 -460,223.836 Z" />
                <path
                   id="path4783"
                   style="fill:#ffa0b1"
                   d="M -460,332.91 V 441.98 L -323.92,387.427 -460,332.906 Z" />
                <path
                   id="path4785"
                   d="M -460,441.99 V 551.06 L -323.92,496.507 -460,441.986 Z"
                   style="fill:#ffd292" />
                <path
                   id="path4787"
                   style="fill:#94cce9"
                   d="M -460,551.06 V 660.13 L -323.92,605.577 -460,551.056 Z" />
                <path
                   id="path4789"
                   d="M -460,660.13 V 769.2 L -323.92,714.647 -460,660.126 Z"
                   style="fill:#abc3d4" />
                <path
                   id="path4791"
                   d="M -460,769.21 V 878.28 L -323.92,823.727 -460,769.206 Z"
                   style="fill:#ffa0b1" />
                <path
                   id="path4793"
                   style="fill:#ffd292"
                   d="M -460,878.28 V 987.35 L -323.92,932.797 -460,878.276 Z" />
                <path
                   id="path4795"
                   d="m -460,987.36 v 109.07 L -323.92,1041.877 -460,987.356 Z"
                   style="fill:#94cce9" />
                <path
                   id="path4797"
                   style="fill:#abc3d4"
                   d="m 495.78,1437.3 v 54.156 h 135.56 z"
                   transform="matrix(0.99576,0,0,0.99909,-953.68,-339.63)" />
              </g>
              <g
                 id="g4799"
                 transform="translate(-179.67,-53.458)">
                <path
                   id="path4801"
                   style="fill:#d294ba"
                   d="M -145.97,441.96 V 332.89 l -136.08,54.553 136.08,54.521 z" />
                <path
                   id="path4803"
                   style="fill:#a7d8d7"
                   d="M -145.97,332.89 V 223.82 l -136.08,54.553 136.08,54.521 z" />
                <path
                   id="path4805"
                   d="M -145.97,223.81 V 114.74 l -136.08,54.553 136.08,54.521 z"
                   style="fill:#cdc287" />
                <path
                   id="path4807"
                   style="fill:#ffb997"
                   d="m 1427.8,1761.4 -69.594,63.656 h 138.28 v -0.8437 l -68.688,-62.812 z"
                   transform="matrix(0,-0.78332,2.1373,0,-4046.6,1178.6)" />
                <path
                   id="path4809"
                   d="M -145.97,878.26 V 769.19 l -136.08,54.553 136.08,54.521 z"
                   style="fill:#d294ba" />
                <path
                   id="path4811"
                   d="M -145.97,769.18 V 660.11 l -136.08,54.553 136.08,54.521 z"
                   style="fill:#a7d8d7" />
                <path
                   id="path4813"
                   style="fill:#cdc287"
                   d="M -145.97,660.11 V 551.04 l -136.08,54.553 136.08,54.521 z" />
                <path
                   id="path4815"
                   d="M -145.97,551.03 V 441.96 l -136.08,54.553 136.08,54.521 z"
                   style="fill:#ffb997" />
                <path
                   id="path4817"
                   style="fill:#a7d8d7"
                   d="m 34.688,1761.4 -68.844,62.969 v 0.6874 h 138.47 l -69.625,-63.656 z"
                   transform="matrix(0,-0.78332,2.1373,0,-4046.6,1178.6)" />
                <path
                   id="path4819"
                   d="M -145.97,1096.9 V 987.83 l -136.08,54.553 136.08,54.521 z"
                   style="fill:#cdc287" />
                <path
                   id="path4821"
                   style="fill:#ffb997"
                   d="M -145.97,987.83 V 878.76 l -136.08,54.553 136.08,54.521 z" />
              </g>
            </g>
            <g
               id="g4823"
               transform="matrix(0,-0.46789,1.2755,0,-141.93,1834.6)">
              <g
                 id="g4825"
                 transform="translate(271.75,1.3029)">
                <path
                   id="path4827"
                   style="fill:#ffa0b1"
                   d="m 769.78,1437.3 -135.47,54.2 h 135.47 v -54.156 z"
                   transform="matrix(-0.99576,0,0,-0.99909,306.53,1441.7)" />
                <path
                   id="path4829"
                   d="m -460,5.6898 v 109.07 L -323.92,60.2068 -460,5.6858 Z"
                   style="fill:#ffd292" />
                <path
                   id="path4831"
                   style="fill:#94cce9"
                   d="M -460,114.76 V 223.83 L -323.92,169.277 -460,114.756 Z" />
                <path
                   id="path4833-8"
                   d="M -460,223.84 V 332.91 L -323.92,278.357 -460,223.836 Z"
                   style="fill:#abc3d4" />
                <path
                   id="path4835"
                   d="M -460,332.91 V 441.98 L -323.92,387.427 -460,332.906 Z"
                   style="fill:#ffa0b1" />
                <path
                   id="path4837"
                   style="fill:#ffd292"
                   d="M -460,441.99 V 551.06 L -323.92,496.507 -460,441.986 Z" />
                <path
                   id="path4839"
                   d="M -460,551.06 V 660.13 L -323.92,605.577 -460,551.056 Z"
                   style="fill:#94cce9" />
                <path
                   id="path4841"
                   style="fill:#abc3d4"
                   d="M -460,660.13 V 769.2 L -323.92,714.647 -460,660.126 Z" />
                <path
                   id="path4843"
                   style="fill:#ffa0b1"
                   d="M -460,769.21 V 878.28 L -323.92,823.727 -460,769.206 Z" />
                <path
                   id="path4845"
                   d="M -460,878.28 V 987.35 L -323.92,932.797 -460,878.276 Z"
                   style="fill:#ffd292" />
                <path
                   id="path4847"
                   style="fill:#94cce9"
                   d="m -460,987.36 v 109.07 L -323.92,1041.877 -460,987.356 Z" />
                <path
                   id="path4849"
                   style="fill:#abc3d4"
                   d="m 634.22,291.5 135.56,54.125 V 291.5 Z"
                   transform="matrix(-0.99576,0,0,-0.99909,306.53,1441.7)" />
              </g>
              <g
                 id="g4851"
                 transform="translate(93.801,-53.458)">
                <path
                   id="path4853"
                   d="M -145.97,441.96 V 332.89 l -136.08,54.553 136.08,54.521 z"
                   style="fill:#d7b4d5" />
                <path
                   id="path4855"
                   d="M -145.97,332.89 V 223.82 l -136.08,54.553 136.08,54.521 z"
                   style="fill:#a7d8d7" />
                <path
                   id="path4857"
                   style="fill:#dad292"
                   d="M -145.97,223.81 V 114.74 l -136.08,54.553 136.08,54.521 z" />
                <path
                   id="path4859"
                   style="fill:#ffb997"
                   d="m -34.156,1825.4 v 0.6875 l 68.875,62.969 69.594,-63.656 h -138.47 z"
                   transform="matrix(0,0.78332,-2.1373,0,3755.3,33.018)" />
                <path
                   id="path4861"
                   style="fill:#d7b4d5"
                   d="M -145.97,878.26 V 769.19 l -136.08,54.553 136.08,54.521 z" />
                <path
                   id="path4863"
                   style="fill:#a7d8d7"
                   d="M -145.97,769.18 V 660.11 l -136.08,54.553 136.08,54.521 z" />
                <path
                   id="path4865"
                   d="M -145.97,660.11 V 551.04 l -136.08,54.553 136.08,54.521 z"
                   style="fill:#dad292" />
                <path
                   id="path4867"
                   style="fill:#ffb997"
                   d="M -145.97,551.03 V 441.96 l -136.08,54.553 136.08,54.521 z" />
                <path
                   id="path4869"
                   style="fill:#a7d8d7"
                   d="m 1358.2,1825.4 69.625,63.656 68.656,-62.812 v -0.8438 h -138.28 z"
                   transform="matrix(0,0.78332,-2.1373,0,3755.3,33.018)" />
                <path
                   id="path4871"
                   style="fill:#dad292"
                   d="M -145.97,1096.9 V 987.83 l -136.08,54.553 136.08,54.521 z" />
                <path
                   id="path4873"
                   d="M -145.97,987.83 V 878.76 l -136.08,54.553 136.08,54.521 z"
                   style="fill:#ffb997" />
              </g>
            </g>
            <g
               id="g4927"
               transform="matrix(0,0.46789,-1.2755,0,1267.2,2011.1)">
              <g
                 id="g4929"
                 transform="translate(271.75,1.3029)">
                <path
                   id="path4931"
                   style="fill:#ffa0b1"
                   d="m 770.5,291.5 v 54.125 l 135.47,-54.12 H 770.5 Z"
                   transform="matrix(0.99576,0,0,0.99909,-1227.2,-339.63)" />
                <path
                   id="path4933"
                   style="fill:#ffd292"
                   d="m -460,5.6898 v 109.07 L -323.92,60.2068 -460,5.6858 Z" />
                <path
                   id="path4935"
                   d="M -460,114.76 V 223.83 L -323.92,169.277 -460,114.756 Z"
                   style="fill:#94cce9" />
                <path
                   id="path4937"
                   style="fill:#abc3d4"
                   d="M -460,223.84 V 332.91 L -323.92,278.357 -460,223.836 Z" />
                <path
                   id="path4939"
                   style="fill:#ffa0b1"
                   d="M -460,332.91 V 441.98 L -323.92,387.427 -460,332.906 Z" />
                <path
                   id="path4941"
                   d="M -460,441.99 V 551.06 L -323.92,496.507 -460,441.986 Z"
                   style="fill:#ffd292" />
                <path
                   id="path4943"
                   style="fill:#94cce9"
                   d="M -460,551.06 V 660.13 L -323.92,605.577 -460,551.056 Z" />
                <path
                   id="path4945"
                   d="M -460,660.13 V 769.2 L -323.92,714.647 -460,660.126 Z"
                   style="fill:#abc3d4" />
                <path
                   id="path4947"
                   d="M -460,769.21 V 878.28 L -323.92,823.727 -460,769.206 Z"
                   style="fill:#ffa0b1" />
                <path
                   id="path4949"
                   style="fill:#ffd292"
                   d="M -460,878.28 V 987.35 L -323.92,932.797 -460,878.276 Z" />
                <path
                   id="path4951"
                   d="m -460,987.36 v 109.07 L -323.92,1041.877 -460,987.356 Z"
                   style="fill:#94cce9" />
                <path
                   id="path4953"
                   style="fill:#abc3d4"
                   d="m 770.5,1437.3 v 54.156 h 135.56 l -135.56,-54.2 z"
                   transform="matrix(0.99576,0,0,0.99909,-1227.2,-339.63)" />
              </g>
              <g
                 id="g4955"
                 transform="translate(93.801,-53.458)">
                <path
                   id="path4957"
                   style="fill:#d294ba"
                   d="M -145.97,441.96 V 332.89 l -136.08,54.553 136.08,54.521 z" />
                <path
                   id="path4959"
                   style="fill:#a7d8d7"
                   d="M -145.97,332.89 V 223.82 l -136.08,54.553 136.08,54.521 z" />
                <path
                   id="path4961"
                   d="M -145.97,223.81 V 114.74 l -136.08,54.553 136.08,54.521 z"
                   style="fill:#cdc287" />
                <path
                   id="path4963"
                   style="fill:#ffb997"
                   d="M -145.97,114.74 V 6.5 l -136.08,53.723 z" />
                <path
                   id="path4965"
                   d="M -145.97,878.26 V 769.19 l -136.08,54.553 136.08,54.521 z"
                   style="fill:#d294ba" />
                <path
                   id="path4967"
                   d="M -145.97,769.18 V 660.11 l -136.08,54.553 136.08,54.521 z"
                   style="fill:#a7d8d7" />
                <path
                   id="path4969"
                   style="fill:#cdc287"
                   d="M -145.97,660.11 V 551.04 l -136.08,54.553 136.08,54.521 z" />
                <path
                   id="path4971"
                   d="M -145.97,551.03 V 441.96 l -136.08,54.553 136.08,54.521 z"
                   style="fill:#ffb997" />
                <path
                   id="path4973"
                   style="fill:#a7d8d7"
                   d="m 34.688,1889.4 -68.75,62.875 v 0.7812 h 138.38 l -69.625,-63.656 z"
                   transform="matrix(0,-0.78332,2.1373,0,-4320.1,1178.6)" />
                <path
                   id="path4975"
                   d="M -145.97,1096.9 V 987.83 l -136.08,54.553 136.08,54.521 z"
                   style="fill:#cdc287" />
                <path
                   id="path4977"
                   style="fill:#ffb997"
                   d="M -145.97,987.83 V 878.76 l -136.08,54.553 136.08,54.521 z" />
              </g>
            </g>
          </g>
        </g>
        <path
           id="path20304"
           style="color:#000000;text-indent:0;text-transform:none;fill:#fff6d5"
           d="m -162.81,1030.8 v 2 l 65.237,60.155 h -65.237 v 2.1249 h 65.175 l -65.175,60.124 v 6.8436 l 65.237,60.124 h -65.237 v 2.1249 h 65.175 l -65.175,60.124 v 2.0312 h 0.81351 l 66.896,-61.655 66.896,61.655 h 5.7572 l 66.896,-61.655 66.864,61.655 h 5.7885 l 66.864,-61.655 66.896,61.655 h 3.035 l -67.459,-62.155 h 134.86 l -67.396,62.155 h 3.0037 l 66.896,-61.655 66.958,61.655 h 5.6633 l 66.927,-61.655 66.927,61.655 h 5.6946 l 66.896,-61.655 66.958,61.655 h 5.6633 l 66.864,-61.686 66.958,61.686 h 5.6946 l 66.896,-61.686 66.958,61.686 h 5.6634 l 66.89599,-61.686 66.99,61.686 h 5.6634 l 66.864,-61.686 66.958,61.686 h 5.6945 l 66.896,-61.686 66.896,61.686 h 0.8136 v -2 l -65.238,-60.155 h 65.238 v -2.1249 h -65.175 l 65.175,-60.124 v -6.8436 l -65.238,-60.124 h 65.238 v -2.1249 h -65.175 l 65.175,-60.124 V 1030.8 h -0.8449 l -66.864,61.624 -66.896,-61.624 h -5.7572 l -66.896,61.624 -66.864,-61.624 h -5.7572 l -66.896,61.624 -66.89599,-61.624 h -3.0038 l 67.42799,62.155 H 884.08651 l 67.365,-62.155 h -2.9725 l -66.864,61.655 -66.99,-61.655 h -5.6633 l -66.896,61.655 -66.958,-61.655 h -5.6633 l -66.896,61.655 -66.927,-61.655 h -5.7259 l -66.896,61.655 -66.927,-61.655 h -5.6946 l -66.927,61.655 -66.896,-61.655 h -5.6946 l -66.927,61.655 -66.896,-61.655 h -5.7259 l -66.896,61.655 -66.927,-61.655 h -5.6946 l -66.896,61.624 -66.958,-61.624 h -0.75094 z m 137.45,0.094 67.334,62.061 h -134.57 l 67.24,-62.061 z m 139.52,0 67.334,62.061 H 46.924 l 67.24,-62.061 z m 139.55,0 67.303,62.061 h -134.57 l 67.271,-62.061 z m 139.52,0 67.334,62.061 h -134.57 l 67.24,-62.061 z m 139.52,0 67.334,62.061 h -134.57 l 67.24,-62.061 z m 139.55,0 67.303,62.061 h -134.57 l 67.271,-62.061 z m 139.52,0 67.334,62.061 h -134.61 l 67.271,-62.061 z m 279.38,0.031 67.271,62.03 h -134.51 l 67.24,-62.03 z m 139.52,0 67.271,62.03 h -134.51 l 67.24,-62.03 z M -92.58,1095.08 H 41.93 l -67.24,61.967 -67.271,-61.967 z m 139.52,0 h 134.51 l -67.24,61.967 -67.271,-61.967 z m 139.52,0 h 134.86 l -67.396,62.155 -67.459,-62.155 z m 139.86,0 h 134.54 l -67.271,61.998 -67.271,-61.998 z m 139.52,0 h 134.54 l -67.271,61.998 -67.271,-61.998 z m 139.52,0 H 739.9 l -67.24,61.998 -67.303,-61.998 z m 139.49,0 h 134.61 l -67.271,61.998 -67.334,-61.998 z m 139.55,0 h 134.57 l -67.271,61.998 -67.303,-61.998 z m 139.52,0 h 134.57 l -67.24,61.998 -67.334,-61.998 z m 139.52,0 h 134.57 l -67.24,61.998 -67.334,-61.998 z m -421.06,0.4376 67.334,62.061 h -134.57 l 67.24,-62.061 z m 139.55,0 67.303,62.061 h -134.57 l 67.271,-62.061 z m 139.52,0 67.334,62.061 h -134.61 l 67.271,-62.061 z m 139.52,0 67.334,62.061 h -134.57 l 67.24,-62.061 z m 139.58,0 67.271,62.061 h -134.57 l 67.303,-62.061 z m -1395.6,0.031 67.303,62.03 h -134.57 l 67.271,-62.03 z m 139.58,0 67.24,62.03 H -22.74 l 67.271,-62.03 z m 139.52,0 67.271,62.03 h -134.51 l 67.24,-62.03 z m 139.83,0 67.303,62.03 h -134.57 l 67.271,-62.03 z m 139.55,0 67.271,62.03 h -134.57 l 67.303,-62.03 z m 139.52,0 67.303,62.03 h -134.57 l 67.271,-62.03 z m -765.3,64.124 h 134.61 l -67.271,61.998 -67.334,-61.998 z m 139.55,0 h 134.57 l -67.24,61.998 -67.334,-61.998 z m 139.55,0 h 134.57 l -67.271,61.998 -67.303,-61.998 z m 139.52,0 h 134.57 l -67.303,62.03 -67.271,-62.03 z m 139.52,0 h 134.57 l -67.271,62.03 -67.303,-62.03 z m 139.55,0 h 134.57 l -67.271,62.03 -67.303,-62.03 z m 139.52,0 h 134.57 l -67.271,62.03 -67.303,-62.03 z m 139.52,0 h 134.57 l -67.24,62.03 -67.334,-62.03 z m 139.86,0 h 134.54 l -67.271,61.998 -67.271,-61.998 z m 139.55,0 h 134.51 l -67.271,61.998 -67.24,-61.998 z m 139.52,0 h 134.54 l -67.271,61.998 -67.271,-61.998 z m -281.73,0.3438 67.459,62.155 h -134.86 l 67.396,-62.155 z m -976.84,0.125 67.334,62.03 h -134.57 l 67.24,-62.03 z m 139.52,0 67.334,62.03 H 47.024 l 67.24,-62.03 z m 139.55,0 67.303,62.03 h -134.57 l 67.271,-62.03 z m 139.52,0 67.334,62.03 h -134.57 l 67.24,-62.03 z m 139.52,0 67.334,62.03 h -134.57 l 67.24,-62.03 z m 139.55,0 67.303,62.03 h -134.57 l 67.271,-62.03 z m 139.52,0 67.334,62.03 h -134.61 l 67.271,-62.03 z m 279.38,0.031 67.271,61.998 h -134.51 l 67.24,-61.998 z m 139.52,0 67.271,61.998 h -134.51 l 67.24,-61.998 z m -1323.3,64.123 H 42.03 l -67.24,61.998 -67.271,-61.998 z m 139.52,0 h 134.51 l -67.24,61.998 -67.271,-61.998 z m 279.38,0 h 134.54 l -67.271,62.03 -67.271,-62.03 z m 139.52,0 h 134.54 l -67.271,62.03 -67.271,-62.03 z m 139.52,0 H 740 l -67.24,62.03 -67.303,-62.03 z m 139.49,0 h 134.61 l -67.271,62.03 -67.334,-62.03 z m 139.55,0 h 134.57 l -67.271,62.03 -67.303,-62.03 z m 139.52,0 h 134.57 l -67.24,62.03 -67.334,-62.03 z m 139.52,0 h 134.57 l -67.24,62.03 -67.334,-62.03 z" />
      </g>
    </g>
  </g>
</svg>
