<svg width="1920" height="1080" version="1.1" viewBox="0 0 508 286" xmlns="http://www.w3.org/2000/svg"><defs><filter id="c" x="-.68" y="-.68" width="2.4" height="2.4" color-interpolation-filters="sRGB"><feGaussianBlur stdDeviation="73.318583"/></filter><filter id="b" x="-.68" y="-.68" width="2.4" height="2.4" color-interpolation-filters="sRGB"><feGaussianBlur stdDeviation="63.5625"/></filter><filter id="e" x="-.71" y="-.65" width="2.4" height="2.3" color-interpolation-filters="sRGB"><feGaussianBlur stdDeviation="6.5138098"/></filter><filter id="d" x="-.69" y="-.66" width="2.4" height="2.3" color-interpolation-filters="sRGB"><feGaussianBlur stdDeviation="12.094207"/></filter><mask id="a" maskUnits="userSpaceOnUse"><rect transform="scale(-1,1)" x="-508" y="1.1e-13" width="508" height="286" fill="#fff"/></mask></defs><g transform="translate(2.4e-5)" mask="url(#a)"><path transform="matrix(3 0 0 3 -103 -147)" d="m46 81a11 12 0 0 1-11 12 11 12 0 0 1-11-12 11 12 0 0 1 11-12 11 12 0 0 1 11 12" fill="#ff7f2a" filter="url(#e)" opacity=".2" style="mix-blend-mode:normal"/><path transform="matrix(-.8 0 0 .8 397 -14)" d="m621 0.0011a113 113 0 0 1-113 113 113 113 0 0 1-113-113 113 113 0 0 1 113-113 113 113 0 0 1 113 113" fill="#ab37c8" filter="url(#b)" mask="none" opacity=".25" stroke-width=".43" style="mix-blend-mode:normal"/><path transform="matrix(1.5 0 0 1.5 -263 -93)" d="m519 189a21 22 0 0 1-21 22 21 22 0 0 1-21-22 21 22 0 0 1 21-22 21 22 0 0 1 21 22" fill="#008000" filter="url(#d)" opacity=".2" stroke-width="1.1" style="mix-blend-mode:normal"/><path transform="matrix(-.58 0 0 .58 505 130)" d="m148 268a130 130 0 0 1-130 130 130 130 0 0 1-130-130 130 130 0 0 1 130-130 130 130 0 0 1 130 130" fill="#00f" filter="url(#c)" mask="none" opacity=".2" stroke-width=".69"/></g></svg>
