<svg width="24" height="24" version="1.1" viewBox="0 0 512 512" xmlns="http://www.w3.org/2000/svg"><path d="m498 262a242 242 0 0 1-242 242 242 242 0 0 1-242-242 242 242 0 0 1 242-242 242 242 0 0 1 242 242" fill="#808080" stroke-width="1.9"/><path d="m323 166-21 137q-0.69 4.1-0.69 6.1 0 3.2 1.8 4.9 1.8 1.8 5.1 1.8 7.9 0 19-7.1 15-10 24-30 9.3-21 9.3-48 0-46-26-73-26-26-70-26-33 0-60 16-26 16-41 46-14 30-14 65 0 56 32 89 32 33 81 33 24 0 47-8.1 22-8.1 43-24h35q-14 17-27 26-20 14-44 22-24 8.8-53 8.8-40 0-72-19t-49-52q-18-35-18-76 0-43 19-78 19-35 49-54 31-20 74-20 54 0 89 35 35 35 35 90 0 33-13 60t-39 43q-21 12-37 12-10 0-17-4.9-6.5-4.9-9.3-16-11 11-21 16-9.3 4.5-21 4.5-22 0-39-20t-17-55q0-42 21-77 21-35 52-35 12 0 21 5.7t20 21l3.2-20zm-116 114q0 21 8.8 33 6.5 8.5 17 8.5 11 0 21-9.3 8.8-9.3 16-37 6.7-28 6.7-50 0-17-7.3-25-7.3-8.7-18-8.7-11 0-21 8.7-11 11-18 36-5.9 25-5.9 47z" fill="#fff" stroke-width="26" aria-label="@"/></svg>
