<svg width="24" height="24" fill="none" version="1.1" viewBox="0 0 512 512" xmlns="http://www.w3.org/2000/svg"><path d="m273 234v-0.7c-0.1 0.2-0.3 0.5-0.5 0.7z" fill="#fff"/><path d="m448 30h-384c-18 0-33 14-33 32v388c0 18 15 32 33 32h384c18 0 33-14 33-32v-388c0-18-15-32-33-32z" fill="#808080"/><g transform="matrix(1.1 0 0 1.1 13 13)" fill="#fff" stroke-width="20" aria-label="rss"><path d="m296 159c-62-62-144-96-231-96v64c70 0 136 27 186 77 50 50 77 116 77 186h64c-1e-3 -87-34-170-96-231z"/><path d="m64 172v64c85 0 154 69 154 154h64c0-120-98-218-218-218z"/><circle cx="110" cy="346" r="46"/></g></svg>
