<svg width="24" height="24" version="1.1" viewBox="0 0 512 512" xmlns="http://www.w3.org/2000/svg"><path d="m64 30c-18 0-33 14-33 32v388c0 18 15 32 33 32h384c18 0 33-14 33-32v-388c0-18-15-32-33-32h-384z" fill="#808080"/><path d="m84.5 82.3v70.4c77 0 150 29.7 205 84.7 55 55 84.7 128 84.7 205h70.4c-0.0011-95.7-37.4-187-106-254-68.2-68.2-158-106-254-106zm-1.08 120v70.4c93.5 0 169 75.9 169 169h70.4c0-132-108-240-240-240zm50.6 141a50.6 50.6 0 0 0-50.6 50.6 50.6 50.6 0 0 0 50.6 50.6 50.6 50.6 0 0 0 50.6-50.6 50.6 50.6 0 0 0-50.6-50.6z" fill="#fff"/></svg>
