<svg width="24" height="24" version="1.1" viewBox="0 0 512 512" xmlns="http://www.w3.org/2000/svg"><path d="m64.2 29.6c-18.3 0-33.2 14.5-33.2 32.4v388c0 17.9 14.9 32.4 33.2 32.4h384c18.4 0 33.3-14.5 33.3-32.4v-388c0-17.9-14.9-32.4-33.3-32.4z" fill="#808080"/><path d="m227 96c-6.47 0-11.7 4.78-11.7 10.7v219c0 5.89 5.24 10.7 11.7 10.7h58c6.47 0 11.7-4.78 11.7-10.7v-219c0-5.89-5.24-10.7-11.7-10.7h-58zm-115 73c-6.47 0-11.7 4.78-11.7 10.7v146c0 5.89 5.24 10.7 11.7 10.7h58c6.47 0 11.8-4.78 11.8-10.7v-146c0-5.89-5.28-10.7-11.8-10.7h-58zm229 28c-6.47 0-11.8 4.78-11.8 10.7v118c0 5.89 5.28 10.7 11.8 10.7h58c6.47 0 11.7-4.78 11.7-10.7v-118c0-5.89-5.24-10.7-11.7-10.7h-58zm-249 164c-10.2 0-18.5 7.53-18.5 16.8s8.28 16.8 18.5 16.8h326c10.2 0 18.5-7.53 18.5-16.8s-8.28-16.8-18.5-16.8h-326z" fill="#fff"/></svg>
