<svg width="24" height="24" version="1.1" viewBox="0 0 512 512" xmlns="http://www.w3.org/2000/svg"><path d="m448 29.6h-384c-18.3 0-33.2 14.5-33.2 32.4v388c0 17.9 14.9 32.4 33.2 32.4h384c18.4 0 33.3-14.5 33.3-32.4v-388c0-17.9-14.9-32.4-33.3-32.4z" fill="#808080"/><path d="m134 106c-23.2 0-38.4 15.2-38.4 35.3 0 19.6 14.7 35.3 37.5 35.3h0.417c23.7 0 38.5-15.7 38.5-35.3-0.4-20-14.7-35.3-38-35.3zm200 93.7c-36.1 0-52.3 19.9-61.3 33.8v-28.9h-68c0.9 19.2 0 204 0 204h68v-114c0-6.1 0.408-12.2 2.21-16.6 4.9-12.3 16.1-24.9 34.9-24.9 24.6 0 34.4 18.7 34.4 46.2v110h68v-117c0-62.9-33.5-92.1-78.2-92.1zm-235 4.92v204h68v-204h-68z" fill="#fff"/></svg>
