<svg width="24" height="24" version="1.1" viewBox="0 0 135 135" xmlns="http://www.w3.org/2000/svg"><path class="cls-1" d="m34.6 6.21c-15.7 0-28.4 12.6-28.4 28.4v66.3c0 15.7 12.7 28.4 28.4 28.4h66.3c15.7 0 28.4-12.7 28.4-28.4v-66.3c0-15.7-12.6-28.4-28.4-28.4z" fill="#808080"/><path d="m36.9 26.9c-7.81-5.4e-4 -14.2 0.0445-14.2 0.0992s7.63 10.1 17 22.3c9.33 12.2 16.9 22.3 16.9 22.4-0.0506 0.121-7.24 8.39-16 18.4-8.75 9.99-16 18.2-16 18.3-0.0707 0.115 2.47 0.181 6.78 0.176l6.9-0.011 12.4-14.2c6.83-7.83 12.5-14.2 12.5-14.2 0.053-0.0039 5 6.41 11 14.2l10.9 14.3h27.8l-5.64-7.46c-3.1-4.11-11.1-14.7-17.7-23.4-6.65-8.79-12.1-16.1-12.1-16.1-0.0093-0.0859 6.55-7.65 14.6-16.8 8.02-9.16 14.8-16.9 15-17.2l0.485-0.562h-13.8l-11.4 13c-6.25 7.15-11.4 13-11.5 13-0.054-0.0012-4.52-5.85-9.92-13l-9.82-13zm6.06 7.9 4.1 0.011 8.59 11.4c4.73 6.27 15.6 20.7 24.3 32.1 8.61 11.4 15.9 21 16.1 21.3l0.474 0.628h-7.71l-8.06-10.6c-4.43-5.8-15.7-20.5-25-32.6-9.3-12.2-16.9-22.1-16.9-22.2s1.84-0.0937 4.09-0.0882z" fill="#fff"/></svg>
